<svg viewBox="0 0 115 42" xmlns="http://www.w3.org/2000/svg"><title>appstore_black</title><g fill="none"><path d="M113.424 35.422c0 3.549-2.503 5.755-5.908 5.755H7.42c-3.407 0-6.169-2.878-6.169-6.427V7.603c0-3.548 2.762-6.426 6.169-6.426h100.096c3.405 0 5.908 2.878 5.908 6.426v27.819z" stroke="#555"/><path d="M16.584 11.631h2.103a.25.25 0 0 0 .25-.246.251.251 0 0 0-.25-.252h-2.103a.252.252 0 0 0-.248.252c0 .132.114.246.248.246zm1.051 18.43a1.096 1.096 0 0 0 0 2.19 1.094 1.094 0 0 0 0-2.19zm-5.365-.937h10.733V13.25H12.27v15.874zm34.413-5.213c-.508 0-.968.168-1.383.505a2.37 2.37 0 0 0-.812 1.333 2.694 2.694 0 0 0-.095.631v1.546c0 .677.203 1.248.62 1.713.413.461.952.694 1.614.694.774 0 1.384-.297 1.816-.897.433-.599.648-1.388.648-2.372 0-.902-.201-1.648-.61-2.233-.448-.608-1.045-.92-1.798-.92zm37.641-.128c-.825 0-1.456.367-1.887 1.104-.374.608-.557 1.349-.557 2.226 0 .854.183 1.583.557 2.192.442.736 1.066 1.103 1.872 1.103.785 0 1.406-.372 1.848-1.126.386-.617.577-1.356.577-2.205s-.184-1.582-.551-2.19c-.439-.737-1.055-1.104-1.859-1.104zm-27.436.128c-.511 0-.968.168-1.384.505a2.38 2.38 0 0 0-.814 1.333 2.729 2.729 0 0 0-.093.631v1.546c0 .677.204 1.248.619 1.713.413.461.952.694 1.612.694.781 0 1.385-.297 1.819-.897.434-.599.651-1.388.651-2.372 0-.902-.205-1.648-.611-2.233-.449-.608-1.048-.92-1.799-.92zM35.565 20.59h-.037c-.129.547-.33 1.354-.613 2.426l-1.07 3.364h3.458l-1.085-3.364c-.118-.345-.337-1.155-.653-2.426zm64.41 3.092c-.674 0-1.221.288-1.643.845-.344.444-.55.98-.612 1.601h4.299c.011-.609-.119-1.136-.399-1.584-.359-.571-.908-.862-1.645-.862zm-55.31-9.164c.029-.088.029-.177.029-.266v-.657c-.855-.01-1.669.166-1.669.893 0 .472.304.688.687.688a.992.992 0 0 0 .953-.658zm-11.26-3.006c-.128-.402-.236-.854-.334-1.237h-.02c-.098.383-.207.844-.314 1.237l-.511 1.631h1.699l-.52-1.631zm68.475-.471c1.552 0 2.063 1.277 2.063 2.328 0 .226-.02.403-.039.51h-3.202c.029.864.697 1.238 1.472 1.238.561 0 .954-.088 1.326-.216l.177.825c-.412.177-.981.304-1.669.304-1.552 0-2.465-.952-2.465-2.415 0-1.327.805-2.574 2.337-2.574zm-19.169.108l.059.717h.03c.215-.374.736-.825 1.531-.825.835 0 1.7.54 1.7 2.052v2.839h-1.208v-2.701c0-.687-.256-1.208-.913-1.208-.482 0-.816.344-.944.707a1.133 1.133 0 0 0-.059.383v2.819h-1.208v-3.359c0-.55-.02-1.011-.039-1.424h1.051zm-12.686-.108c1.552 0 2.063 1.277 2.063 2.328a2.9 2.9 0 0 1-.04.51h-3.202c.03.864.698 1.238 1.474 1.238.559 0 .952-.088 1.326-.216l.176.825c-.412.177-.982.304-1.669.304-1.552 0-2.466-.952-2.466-2.415 0-1.327.806-2.574 2.338-2.574zm-4.951-2.082h1.207v6.973h-1.207V8.959zm-9.581 2.936c-.471 0-.962.148-1.286.354l-.236-.786c.353-.216.972-.422 1.728-.422 1.533 0 1.975.972 1.975 2.023v1.719c0 .432.019.855.077 1.149h-1.089l-.088-.53h-.03c-.285.373-.786.639-1.414.639-.963 0-1.504-.698-1.504-1.425 0-1.198 1.071-1.817 2.84-1.807v-.079c0-.314-.129-.835-.973-.835zm-7.143-2.74c.413 0 .669.285.678.658 0 .354-.265.648-.688.648-.403 0-.667-.294-.667-.648 0-.373.275-.658.677-.658zm-.608 1.994h1.207v4.783h-1.207v-4.783zM32.334 9.312h1.542l2.151 6.62H34.72l-.598-1.876H32.03l-.571 1.876h-1.247l2.122-6.62zm-8.045 21.951a2.116 2.116 0 0 1-2.117 2.112h-9.071a2.116 2.116 0 0 1-2.118-2.112V11.105c0-1.166.951-2.114 2.118-2.114h9.071c1.166 0 2.117.948 2.117 2.114v20.158zm14.582.484l-1.203-3.78h-4.185l-1.148 3.78h-2.138l4.143-12.878h2.563l4.167 12.878h-2.199zm.469-15.815h-1.189l-1.778-4.783h1.307l.775 2.426c.138.423.236.806.325 1.199h.029a18.1 18.1 0 0 1 .325-1.199l.766-2.426h1.267l-1.827 4.783zm2.487-1.316c0-1.198 1.07-1.817 2.838-1.807v-.079c0-.314-.128-.835-.972-.835-.472 0-.962.148-1.287.354l-.236-.786c.354-.216.972-.422 1.729-.422 1.532 0 1.974.972 1.974 2.023v1.719c0 .432.019.855.079 1.149h-1.091l-.088-.53h-.03c-.284.373-.785.639-1.414.639-.962 0-1.502-.698-1.502-1.425zm8.079 16.122c-.766.812-1.723 1.219-2.861 1.219-1.233 0-2.115-.438-2.652-1.32v4.877h-2.062V25.513c0-.994-.027-2.01-.079-3.052h1.816l.113 1.47h.037c.691-1.104 1.734-1.657 3.137-1.657 1.095 0 2.007.429 2.743 1.298.73.864 1.098 2.006 1.098 3.419 0 1.584-.429 2.828-1.29 3.747zm.94-21.779h1.207v6.973h-1.207V8.959zm9.263 21.779c-.769.812-1.721 1.219-2.863 1.219-1.229 0-2.113-.438-2.649-1.32v4.877h-2.064V25.513a63.7 63.7 0 0 0-.077-3.052h1.811l.119 1.47h.035c.693-1.104 1.734-1.657 3.135-1.657 1.096 0 2.01.429 2.743 1.298.734.864 1.099 2.006 1.099 3.419 0 1.584-.429 2.828-1.289 3.747zm1.417-14.697c-.619 0-1.169-.236-1.513-.826h-.02l-.058.717h-1.032c.02-.324.04-.854.04-1.346V8.959h1.207v2.848h.02c.294-.462.815-.766 1.533-.766 1.168 0 2.003.972 1.993 2.426 0 1.719-1.09 2.574-2.17 2.574zM71.913 30.81c-.843.752-2.012 1.126-3.51 1.126-1.388 0-2.499-.269-3.337-.801l.479-1.719a5.766 5.766 0 0 0 2.977.802c.78 0 1.384-.177 1.818-.525.43-.349.647-.816.647-1.409 0-.516-.179-.956-.533-1.314-.36-.357-.947-.685-1.776-.993-2.253-.839-3.381-2.069-3.381-3.686 0-1.057.393-1.925 1.191-2.6.796-.673 1.85-1.012 3.164-1.012 1.171 0 2.146.205 2.924.61l-.521 1.682c-.726-.393-1.55-.593-2.471-.593-.727 0-1.298.185-1.709.532a1.554 1.554 0 0 0-.515 1.17c0 .506.198.928.592 1.264.345.304.97.634 1.871.99 1.112.442 1.924.968 2.448 1.568.521.599.783 1.342.783 2.233 0 1.096-.382 1.991-1.141 2.675zm7.274-6.803h-2.278v4.514c0 1.145.405 1.714 1.208 1.714.37 0 .672-.028.916-.09l.058 1.563c-.408.152-.941.229-1.604.229-.811 0-1.452-.244-1.909-.745-.464-.494-.691-1.33-.691-2.502v-4.683h-1.356v-1.546h1.356v-1.7l2.022-.611v2.311h2.278v1.546zm-1.164-7.966c-1.345 0-2.396-.924-2.396-2.466 0-1.572 1.031-2.534 2.475-2.534 1.424 0 2.377 1.002 2.377 2.455 0 1.759-1.238 2.545-2.456 2.545zm9.63 14.506c-.856.94-1.99 1.41-3.4 1.41-1.366 0-2.455-.451-3.262-1.356-.808-.902-1.212-2.047-1.212-3.42 0-1.439.417-2.618 1.251-3.535.835-.92 1.957-1.372 3.37-1.372 1.368 0 2.463.448 3.29 1.356.788.874 1.183 2.011 1.183 3.399 0 1.431-.404 2.598-1.22 3.518zm2.132-19.398h.678v-.894l1.189-.334v1.228H92.8v.903h-1.148v2.112c0 .59.157.884.618.884.217 0 .334-.01.472-.049l.02.913c-.177.069-.501.129-.874.129-.452 0-.816-.148-1.041-.394-.266-.275-.384-.717-.384-1.345v-2.25h-.678v-.903zm5.297 13.126a3.647 3.647 0 0 0-.649-.052c-.726 0-1.285.274-1.681.82-.345.485-.517 1.088-.517 1.832v4.872h-2.063v-6.365c0-1.065-.019-2.039-.055-2.921h1.796l.076 1.777h.057c.215-.609.558-1.101 1.031-1.468a2.476 2.476 0 0 1 1.492-.496c.19 0 .363.011.513.035v1.966zm.313-11.211v2.868h-1.207V8.959h1.207v2.838h.02c.147-.225.354-.412.6-.54.244-.138.53-.216.834-.216.816 0 1.671.54 1.671 2.072v2.819h-1.209v-2.691c0-.688-.256-1.218-.923-1.218-.472 0-.806.314-.943.678-.039.108-.05.235-.05.363zm8.518 14.541H97.72c.025.916.324 1.614.9 2.097.52.434 1.195.651 2.024.651.919 0 1.751-.146 2.503-.443l.325 1.435c-.876.385-1.916.572-3.117.572-1.437 0-2.567-.421-3.388-1.268-.821-.847-1.236-1.984-1.236-3.409 0-1.404.385-2.567 1.147-3.501.806-.992 1.889-1.488 3.25-1.488 1.341 0 2.352.496 3.038 1.488.546.792.822 1.768.822 2.928 0 .366-.027.679-.075.938zM61.26 11.984c-.49 0-.943.353-1.07.884-.02.088-.04.196-.04.314v.776l.03.285c.128.491.55.845 1.07.845.757 0 1.218-.6 1.218-1.571 0-.845-.402-1.533-1.208-1.533zm8.696-.118c-.746 0-1.061.678-1.11 1.169h2.103c.009-.442-.187-1.169-.993-1.169zm8.117.049c-.855 0-1.199.835-1.199 1.63 0 .924.462 1.621 1.189 1.621.687 0 1.168-.668 1.168-1.64 0-.747-.333-1.611-1.158-1.611zm-23.248 2.573c0 .472.305.688.687.688a.992.992 0 0 0 .954-.658c.029-.088.029-.177.029-.266v-.657c-.854-.01-1.67.166-1.67.893zm46.986-2.622c-.746 0-1.06.678-1.109 1.169h2.101c.011-.442-.187-1.169-.992-1.169z" fill="#555"/></g></svg>