<svg width="146" height="49" viewBox="0 0 146 49" xmlns="http://www.w3.org/2000/svg"><title>Slice 1</title><g transform="translate(2 1)" fill="none" fill-rule="evenodd"><rect stroke="#555" x="1" width="140" height="46" rx="6"/><path d="M36.328 9.164c0-2.126 1.585-3.492 3.555-3.492 1.32 0 2.183.627 2.722 1.397l-.965.557a2.187 2.187 0 0 0-1.757-.901c-1.34 0-2.336 1.012-2.336 2.439 0 1.407.996 2.44 2.336 2.44.691 0 1.3-.314 1.605-.608V9.953h-2.031V8.911h3.209v2.52a3.664 3.664 0 0 1-2.783 1.235c-1.97 0-3.555-1.386-3.555-3.502zm7.807 3.371V5.782h4.64v1.043h-3.452v1.741h3.382V9.61h-3.382v1.884h3.453v1.042h-4.64zm7.929 0v-5.71h-2.05V5.784h5.29v1.043h-2.05v5.709h-1.19zm7.37 0V5.782h1.187v6.753h-1.187zm4.496 0v-5.71h-2.05V5.784h5.29v1.043h-2.05v5.709h-1.19zm7.076-3.371c0-2.015 1.432-3.492 3.463-3.492 2.02 0 3.463 1.478 3.463 3.492 0 2.014-1.443 3.492-3.463 3.492-2.032 0-3.463-1.478-3.463-3.492zm5.707 0c0-1.397-.883-2.44-2.244-2.44-1.37 0-2.245 1.043-2.245 2.44 0 1.386.874 2.44 2.245 2.44 1.36 0 2.244-1.054 2.244-2.44zm7.329 3.371l-3.534-4.829v4.829H79.32V5.782h1.22l3.462 4.678V5.782h1.188v6.753h-1.148zM10.62 38.996c-.391-.106-.646-.493-.646-1.093V18.097c0-.555.216-.93.557-1.066l9.733 11.037-9.645 10.928zm1.339-.42l11.715-6.64-2.853-3.236-8.862 9.875zm11.796-14.464l-11.552-6.549 8.635 9.854 2.917-3.305zm.784.444l4.525 2.566c.857.486.865 1.269 0 1.759l-4.64 2.63-3.026-3.454 3.14-3.5zm25.159 3.522c0 1.8-.534 3.234-1.602 4.302-1.2 1.272-2.778 1.908-4.734 1.908-1.872 0-3.456-.648-4.752-1.944-1.296-1.296-1.944-2.892-1.944-4.788 0-1.896.648-3.492 1.944-4.788 1.296-1.296 2.88-1.944 4.752-1.944.948 0 1.842.168 2.682.504.84.336 1.53.81 2.07 1.422l-1.188 1.188c-.396-.48-.909-.855-1.539-1.125a5.086 5.086 0 0 0-2.025-.405c-1.404 0-2.592.486-3.564 1.458-.96.984-1.44 2.214-1.44 3.69s.48 2.706 1.44 3.69c.972.972 2.16 1.458 3.564 1.458 1.284 0 2.352-.36 3.204-1.08.852-.72 1.344-1.71 1.476-2.97h-4.68v-1.548h6.246c.06.336.09.66.09.972zm1.224 1.512c0-1.356.426-2.478 1.278-3.366.864-.888 1.95-1.332 3.258-1.332s2.388.444 3.24 1.332c.864.888 1.296 2.01 1.296 3.366 0 1.368-.432 2.49-1.296 3.366-.852.888-1.932 1.332-3.24 1.332-1.308 0-2.394-.444-3.258-1.332-.852-.888-1.278-2.01-1.278-3.366zm1.656 0c0 .948.276 1.716.828 2.304.552.588 1.236.882 2.052.882.816 0 1.5-.294 2.052-.882.552-.588.828-1.356.828-2.304 0-.936-.276-1.698-.828-2.286-.564-.6-1.248-.9-2.052-.9s-1.488.3-2.052.9c-.552.588-.828 1.35-.828 2.286zm8.424 0c0-1.356.426-2.478 1.278-3.366.864-.888 1.95-1.332 3.258-1.332s2.388.444 3.24 1.332c.864.888 1.296 2.01 1.296 3.366 0 1.368-.432 2.49-1.296 3.366-.852.888-1.932 1.332-3.24 1.332-1.308 0-2.394-.444-3.258-1.332-.852-.888-1.278-2.01-1.278-3.366zm1.656 0c0 .948.276 1.716.828 2.304.552.588 1.236.882 2.052.882.816 0 1.5-.294 2.052-.882.552-.588.828-1.356.828-2.304 0-.936-.276-1.698-.828-2.286-.564-.6-1.248-.9-2.052-.9s-1.488.3-2.052.9c-.552.588-.828 1.35-.828 2.286zm12.888 3.186c.816 0 1.482-.294 1.998-.882.54-.588.81-1.356.81-2.304 0-.924-.27-1.686-.81-2.286-.528-.6-1.194-.9-1.998-.9-.792 0-1.458.3-1.998.9-.54.6-.81 1.362-.81 2.286 0 .936.27 1.698.81 2.286.54.6 1.206.9 1.998.9zm-.054 5.4c-.492 0-.954-.063-1.386-.189a4.48 4.48 0 0 1-1.179-.531 3.808 3.808 0 0 1-.909-.81 3.415 3.415 0 0 1-.576-1.044l1.566-.648c.18.516.492.93.936 1.242.444.312.96.468 1.548.468.9 0 1.602-.27 2.106-.81.504-.54.756-1.284.756-2.232v-.846h-.072a3.257 3.257 0 0 1-1.269 1.107 3.795 3.795 0 0 1-1.737.405c-1.152 0-2.142-.45-2.97-1.35-.816-.924-1.224-2.04-1.224-3.348 0-1.308.408-2.418 1.224-3.33.828-.912 1.818-1.368 2.97-1.368.624 0 1.203.135 1.737.405s.957.639 1.269 1.107h.072V25.18h1.584v8.442c0 1.416-.402 2.526-1.206 3.33-.816.816-1.896 1.224-3.24 1.224zm8.118-17.064V34h-1.656V21.112h1.656zm5.976 13.176c-1.296 0-2.364-.444-3.204-1.332-.84-.888-1.26-2.01-1.26-3.366 0-1.344.408-2.463 1.224-3.357.816-.894 1.86-1.341 3.132-1.341 1.308 0 2.349.423 3.123 1.269.774.846 1.161 2.031 1.161 3.555l-.018.18h-6.93c.024.864.312 1.56.864 2.088a2.764 2.764 0 0 0 1.98.792c1.056 0 1.884-.528 2.484-1.584l1.476.72a4.4 4.4 0 0 1-1.647 1.746c-.702.42-1.497.63-2.385.63zm-2.646-5.76h5.058a2.196 2.196 0 0 0-.747-1.521c-.45-.402-1.053-.603-1.809-.603-.624 0-1.161.192-1.611.576-.45.384-.747.9-.891 1.548zm14.238.252V34h-1.656V21.112h4.392c1.116 0 2.064.372 2.844 1.116.792.744 1.188 1.65 1.188 2.718 0 1.092-.396 2.004-1.188 2.736-.768.732-1.716 1.098-2.844 1.098h-2.736zm0-6.084v4.5h2.772c.66 0 1.206-.222 1.638-.666.444-.444.666-.972.666-1.584 0-.6-.222-1.122-.666-1.566-.432-.456-.978-.684-1.638-.684h-2.772zm9.864-1.584V34h-1.656V21.112h1.656zm3.222 10.188c0 .432.183.792.549 1.08a2.02 2.02 0 0 0 1.287.432c.696 0 1.317-.258 1.863-.774s.819-1.122.819-1.818c-.516-.408-1.236-.612-2.16-.612-.672 0-1.233.162-1.683.486-.45.324-.675.726-.675 1.206zm2.142-6.408c1.224 0 2.19.327 2.898.981.708.654 1.062 1.551 1.062 2.691V34h-1.584v-1.224h-.072c-.684 1.008-1.596 1.512-2.736 1.512-.972 0-1.785-.288-2.439-.864-.654-.576-.981-1.296-.981-2.16 0-.912.345-1.638 1.035-2.178s1.611-.81 2.763-.81c.984 0 1.794.18 2.43.54v-.378c0-.576-.228-1.065-.684-1.467a2.346 2.346 0 0 0-1.602-.603c-.924 0-1.656.39-2.196 1.17l-1.458-.918c.804-1.152 1.992-1.728 3.564-1.728zm13.716.288l-5.526 12.708h-1.71l2.052-4.446-3.636-8.262h1.8l2.628 6.336h.036l2.556-6.336h1.8z" fill="#555"/></g></svg>