<svg xmlns="http://www.w3.org/2000/svg" viewBox="0 0 24 44"><style>.st0{display:none}.st1{display:inline}.st2{fill:#555}.st3{fill:#fff}</style><g id="Layer_1" class="st0"><path class="st1 st2" d="M143 36h24c.6 0 1-.4 1-1s-.4-1-1-1h-24c-.6 0-1 .4-1 1s.4 1 1 1zm24-18h-8c-.6 0-1 .4-1 1s.4 1 1 1h8c.6 0 1-.4 1-1s-.4-1-1-1zm0-4c.6 0 1-.4 1-1s-.4-1-1-1-1 .4-1 1 .4 1 1 1zM140 4h31c.6 0 1-.4 1-1s-.4-1-1-1h-31c-.6 0-1 .4-1 1s.4 1 1 1zm3-4h26c.6 0 1-.4 1-1s-.4-1-1-1h-26c-.6 0-1 .4-1 1s.4 1 1 1zm24 22h-8c-.6 0-1 .4-1 1s.4 1 1 1h8c.6 0 1-.4 1-1s-.4-1-1-1zm-4-8c.6 0 1-.4 1-1s-.4-1-1-1-1 .4-1 1 .4 1 1 1zm4 12h-8c-.6 0-1 .4-1 1s.4 1 1 1h8c.6 0 1-.4 1-1s-.4-1-1-1zm-24 2h10c.6 0 1-.4 1-1v-8c0-.6-.4-1-1-1h-10c-.6 0-1 .4-1 1v8c0 .6.4 1 1 1zm1-8h8v6h-8v-6zm-1 12h24c.6 0 1-.4 1-1s-.4-1-1-1h-24c-.6 0-1 .4-1 1s.4 1 1 1zm29-26h-34c-1.1 0-2 .9-2 2v4h-4c-1.1 0-2 .9-2 2v22c0 3.3 2.7 6 6 6h36c1.1 0 2-.9 2-2V8c0-1.1-.9-2-2-2zm0 34h-36c-2.2 0-4-1.8-4-4V14h4v21c0 .6.4 1 1 1s1-.4 1-1V8h34v32zm-25-26c.6 0 1-.4 1-1s-.4-1-1-1-1 .4-1 1 .4 1 1 1zm-4 0c.6 0 1-.4 1-1s-.4-1-1-1-1 .4-1 1 .4 1 1 1zm8 0h8c.6 0 1-.4 1-1s-.4-1-1-1h-8c-.6 0-1 .4-1 1s.4 1 1 1z" id="Newspapers_x40_2x.png"/></g><g id="Layer_2" class="st0"><path class="st1 st2" d="M161 29.2s-3.6-.9-3.6-4.6c0-3.3 1.5-4.4 2-5.2 0 0 1.2-1 .4-4.3 1.3-1.8 1.7-4.8.1-8.4-.9-2.1-1.7-3.3-2.9-4-.9-.5-1.9-.7-2.8-.7-1.8 0-3.5.6-4.2 1.1-2 .9-3.3 1.7-4.6 4.9-1.1 2.6.2 5.5.8 7-.8 3.3.3 4.4.3 4.4.6.8 2 2 2 5.2 0 3.7-3.6 4.6-3.6 4.6-2.3.8-7 2.4-7 7.8 0 0 0 1 1 1h28c1 0 1-1 1-1 .1-5.4-4.7-7-6.9-7.8zM140.1 36c.5-2.8 2.9-3.9 5.5-4.8h.1c1.8-.5 5-2.4 5-6.5 0-3.5-1.4-5.2-2.2-6.1-.2-.2-.3-.4-.3-.4-.1-.1-.4-.9.1-2.7.2-.9-.1-1.3-.1-1.3-.5-1.2-1.6-3.5-.8-5.4 1-2.6 1.9-3.1 3.6-3.8.1 0 .2-.1.3-.2.3-.2 1.6-.8 3.1-.8.7 0 1.4.1 1.9.4.6.3 1.2 1 2 3 1.6 3.7.6 5.7.1 6.4-.3.5-.5 1.1-.3 1.6.4 1.7.1 2.4.1 2.5 0 0-.3.3-.4.5-.8.9-2.2 2.6-2.2 6.1 0 4.1 3.2 6 5 6.5h.1c2.5.9 5 2 5.5 4.8h-26.1zm-4.3-7.1c1.3-.4 3.7-1.9 3.7-5.3 0-3.1-1-4.4-1.5-5.2l-.1-.1c0-.1-.2-.7.1-1.8.1-.4 0-.9-.1-1.3-.4-.9-1.2-2.5-.6-3.8.9-2.1 1.2-2.3 2.2-2.7.1 0 .2-.1.3-.1.2-.2 1.3-.5 2.3-.5.5 0 .9.1 1.2.3.1-.3.2-.7.3-1 .1-.3.3-.6.4-.8-.6-.3-1.3-.4-2-.4-1.4 0-2.8.5-3.4.8-1.6.7-2.3 1.3-3.3 3.8-.9 2.1.2 4.3.7 5.4-.6 2.6.2 3.5.2 3.5.5.6 1.2 1.5 1.2 4.1 0 2.9-2.2 3.4-2.2 3.4-1.8.6-4.2 2-4.2 6 0 0 0 1 1 1h4.5c.2-.7.6-1.4.9-2h-4.3c.3-2.1 1.5-2.8 2.7-3.3zm35-1.9s-2.2-.5-2.2-3.4c0-2.6.8-3.5 1.2-4.1 0 0 .9-.9.2-3.5.5-1.1 1.6-3.4.7-5.4-1-2.5-1.7-3.1-3.3-3.8-.6-.3-1.9-.8-3.4-.8-.7 0-1.4.1-2 .4.3.6.5 1.3.6 1.9h.1c.3-.2.8-.3 1.3-.3 1 0 2 .4 2.3.5.1.1.2.1.3.1 1 .4 1.4.6 2.2 2.7.5 1.2-.2 2.9-.6 3.8-.2.4-.2.9-.1 1.3.3 1.1.1 1.6.1 1.8l-.1.1c-.5.7-1.5 2.1-1.5 5.2 0 3.4 2.3 5 3.7 5.3 1.3.5 2.5 1.2 2.8 3.1h-4.3c.4.6.7 1.3.9 2h4.5c1 0 1-1 1-1-.2-3.9-2.6-5.3-4.4-5.9z" id="Users_2_x40_2x.png"/></g><g id="Layer_3" class="st0"><g id="Video_Camera_3" class="st1"><g id="XMLID_1_"><path class="st3" d="M-23 44h4c.5 0 1-.5 1-1s-.5-1-1-1h-4v-6.7c4.7-1.7 8-6.1 8-11.3v-1H1c1.1 0 2 .9 2 2v20c0 1.1-.9 2-2 2h-22c-1.1 0-2-.9-2-2v-1z"/><path class="st2" d="M17 42.5v-15l-8 3.2v8.7l8 3.1zM7 40V30c0-.4.2-.7.6-.9l9.9-4c.2-.1.3-.1.5-.1.5 0 1 .5 1 1v18c0 .5-.5 1-1 1-.2 0-.3 0-.4-.1l-9.9-4c-.5-.2-.7-.5-.7-.9zm-24-19h2v2h-2z"/><path class="st3" d="M-15 21h-2c0-.5.5-1 1-1 .6 0 1 .5 1 1z"/><path class="st2" d="M-19 21h2v2h-2z"/><path class="st3" d="M-23 33.2c3.5-1.5 6-5.1 6-9.2v-1h2v1c0 5.2-3.3 9.7-8 11.3v-2.1zm4 8.8c.5 0 1 .5 1 1s-.5 1-1 1h-4v-2h4z"/><path class="st2" d="M-21 21h2v2h-2z"/><path class="st3" d="M-19 24c0 3-1.6 5.5-4 6.9v-2.5c1.2-1.1 2-2.7 2-4.5v-1h2V24z"/><path class="st2" d="M-25 42h2v2h-2zm2-6.7V42h-2v-6.2c.7-.1 1.4-.3 2-.5z"/><path class="st2" d="M-23 33.2v2.2c-.6.2-1.3.4-2 .5v-2c.7-.2 1.4-.5 2-.7zm0-2.3v2.2c-.6.3-1.3.5-2 .6v-2c.7-.1 1.4-.4 2-.8z"/><path class="st2" d="M-23 28.5V31c-.6.4-1.3.6-2 .8v-2.1c.8-.3 1.4-.7 2-1.2z"/><path class="st2" d="M-21 23c-1.1 0-2 .9-2 2v3.5c-.6.5-1.2.9-2 1.2V25c0-2.2 1.8-4 4-4v2zm0 24H1c1.1 0 2-.9 2-2V25c0-1.1-.9-2-2-2h-16v-2H1c2.2 0 4 1.8 4 4v20c0 2.2-1.8 4-4 4h-22c-2.2 0-4-1.8-4-4v-1h2v1c0 1.1.9 2 2 2z"/><path class="st2" d="M-27 30c.7 0 1.4-.1 2-.4v2.1c-.6.2-1.3.2-2 .2-4.4 0-8-3.6-8-8V8c0-4.4 3.6-8 8-8s8 3.6 8 8v13h-2v-3h-12v6c0 3.3 2.7 6 6 6zm6-22c0-3.3-2.7-6-6-6s-6 2.7-6 6v8h12V8z"/><path class="st2" d="M-27 34c.7 0 1.4-.1 2-.2v2c-.3.1-.7.1-1 .1v6h1v2h-10c-.5 0-1-.5-1-1s.5-1 1-1h7v-6c-6.2-.5-11-5.7-11-12v-3c0-.5.5-1 1-1s1 .5 1 1v3c0 5.6 4.5 10.1 10 10.1z"/></g></g></g><g id="Layer_4" class="st0"><path class="st1 st2" d="M7 29c0-.6-.4-1-1-1-.3 0-.5.1-.7.3l-10 10c-.2.2-.3.4-.3.7 0 .6.4 1 1 1 .3 0 .5-.1.7-.3l10-10c.2-.2.3-.4.3-.7zm-6.3.7l1-1c.2-.2.3-.4.3-.7 0-.6-.4-1-1-1-.3 0-.5.1-.7.3l-1 1c-.2.2-.3.4-.3.7 0 .6.4 1 1 1 .3 0 .5-.1.7-.3zM7 33c-.3 0-.5.1-.7.3l-3 3c-.2.2-.3.4-.3.7 0 .6.4 1 1 1 .3 0 .5-.1.7-.3l3-3c.2-.2.3-.4.3-.7 0-.6-.4-1-1-1zM35 1c0-.6-.4-1-1-1-.2 0-.3 0-.4.1l-42 18c-.4.2-.6.5-.6.9 0 .5.3.8.7.9l16.5 6.8L15 43.3c.1.4.5.7.9.7s.7-.2.9-.6l18-42c.2-.1.2-.2.2-.4zM-5.4 19l35-15L8.8 24.8-5.4 19zM16 40.4l-5.8-14.2L31 5.4l-15 35z" id="Paper_Airplane_x40_2x.png"/></g><g id="Layer_5" class="st0"><path class="st1 st2" d="M27 32H13.9c-.4-1.7-2-3-3.9-3s-3.4 1.3-3.9 3H-3c-.6 0-1 .4-1 1s.4 1 1 1h9.1c.4 1.7 2 3 3.9 3s3.4-1.3 3.9-3H27c.6 0 1-.4 1-1s-.4-1-1-1zm-17 3c-1.1 0-2-.9-2-2s.9-2 2-2 2 .9 2 2-.9 2-2 2zM30 0H-6c-2.2 0-4 1.8-4 4v36c0 2.2 1.8 4 4 4h36c2.2 0 4-1.8 4-4V4c0-2.2-1.8-4-4-4zm2 40c0 1.1-.9 2-2 2H-6c-1.1 0-2-.9-2-2V4c0-1.1.9-2 2-2h36c1.1 0 2 .9 2 2v36zm-5-19h-3.1c-.4-1.7-2-3-3.9-3s-3.4 1.3-3.9 3H-3c-.6 0-1 .4-1 1s.4 1 1 1h19.1c.4 1.7 2 3 3.9 3s3.4-1.3 3.9-3H27c.6 0 1-.4 1-1s-.4-1-1-1zm-7 3c-1.1 0-2-.9-2-2s.9-2 2-2 2 .9 2 2-.9 2-2 2zm7-14H9.9c-.5-1.7-2-3-3.9-3s-3.4 1.3-3.9 3H-3c-.6 0-1 .4-1 1s.4 1 1 1h5.1c.4 1.7 2 3 3.9 3s3.4-1.3 3.9-3H27c.6 0 1-.4 1-1s-.4-1-1-1zM6 13c-1.1 0-2-.9-2-2s.9-2 2-2 2 .9 2 2-.9 2-2 2z" id="Toggles_3_x40_2x.png"/></g><g id="Layer_6" class="st0"><path class="st1 st2" d="M9 19c0-.6-.4-1-1-1s-1 .4-1 1 .4 1 1 1 1-.4 1-1zm3 1c.6 0 1-.4 1-1s-.4-1-1-1-1 .4-1 1 .4 1 1 1zm18-8V5.8c1.2-.4 2-1.5 2-2.8 0-1.7-1.3-3-3-3s-3 1.3-3 3c0 1.3.8 2.4 2 2.8V12h-4v-2c0-1.1-.9-2-2-2H2c-1.1 0-2 .9-2 2v2h-6c-2.2 0-4 1.8-4 4v24c0 2.2 1.8 4 4 4h36c2.2 0 4-1.8 4-4V16c0-2.2-1.8-4-4-4zM2 10h20v2H2v-2zm28 32H-6c-1.1 0-2-.9-2-2h40c0 1.1-.9 2-2 2zm2-24h-3c-.6 0-1 .4-1 1s.4 1 1 1h3v5h-4.1c-.5-2.8-2.9-5-5.9-5-3.3 0-6 2.7-6 6s2.7 6 6 6c3 0 5.4-2.2 5.9-5H32v11H-8V27h4.1c.5 2.8 2.9 5 5.9 5 3.3 0 6-2.7 6-6s-2.7-6-6-6c-3 0-5.4 2.2-5.9 5H-8v-5h3c.6 0 1-.4 1-1s-.4-1-1-1h-3v-2c0-1.1.9-2 2-2h36c1.1 0 2 .9 2 2v2zm-6 8c0 2.2-1.8 4-4 4s-4-1.8-4-4 1.8-4 4-4 4 1.8 4 4zm-28 0c0-2.2 1.8-4 4-4s4 1.8 4 4-1.8 4-4 4-4-1.8-4-4zm16 10h4v-2h-4v2zm2-18c-.6 0-1 .4-1 1s.4 1 1 1 1-.4 1-1-.4-1-1-1zM6 36h4v-2H6v2zm8-12h-4v4h4v-4z" id="Boom_Box"/></g><g id="Layer_7" class="st0"><path class="st1 st3" d="M27.9 36.6c-.1-.1-.1-.3-.2-.3l-8.8-12.7c-.1-.3-.5-.6-.9-.6-.3 0-.5.1-.7.3l-4.2 4.2-5.2-7.8c-.1-.4-.5-.7-.9-.7-.3 0-.6.2-.8.5l-10 17c-.1.1-.2.3-.2.5 0 .6.4 1 1 1h30c.6 0 1-.4 1-1 0-.1 0-.3-.1-.4zM-1.3 36L7 21.9l5 7.5c0 .1.1.2.2.3.2.2.4.3.7.3s.5-.1.7-.3l4.2-4.2L25.1 36H-1.3zM1 16c2.8 0 5-2.2 5-5S3.8 6 1 6s-5 2.2-5 5 2.2 5 5 5zm0-8c1.7 0 3 1.3 3 3s-1.3 3-3 3-3-1.3-3-3 1.3-3 3-3zm29-8H-6c-2.2 0-4 1.8-4 4v36c0 2.2 1.8 4 4 4h36c2.2 0 4-1.8 4-4V4c0-2.2-1.8-4-4-4zm2 40c0 1.1-.9 2-2 2H-6c-1.1 0-2-.9-2-2V4c0-1.1.9-2 2-2h36c1.1 0 2 .9 2 2v36z" id="Photo_x40_2x.png"/></g><g id="Layer_8" class="st0"><path class="st1 st2" d="M15 22h4c.6 0 1-.4 1-1s-.4-1-1-1h-4c-.6 0-1 .4-1 1s.4 1 1 1zm0-4h10c.6 0 1-.4 1-1s-.4-1-1-1H15c-.6 0-1 .4-1 1s.4 1 1 1zm0-4h6c.6 0 1-.4 1-1s-.4-1-1-1h-6c-.6 0-1 .4-1 1s.4 1 1 1zM0 26h8c1.1 0 2-.9 2-2V14c0-1.1-.9-2-2-2H0c-1.1 0-2 .9-2 2v10c0 1.1.9 2 2 2zm0-12h8v10H0V14zm15 12h10c.6 0 1-.4 1-1s-.4-1-1-1H15c-.6 0-1 .4-1 1s.4 1 1 1zM32 2H14c0-1.1-.9-2-2-2s-2 .9-2 2H-8c-1.1 0-2 .9-2 2v2c0 1.1.9 2 2 2v24c0 1.1.9 2 2 2h17v2.6l-5.7 5.7c-.2.2-.3.4-.3.7 0 .6.4 1 1 1 .3 0 .5-.1.7-.3l5.3-5.3 5.3 5.3c.2.2.4.3.7.3.6 0 1-.4 1-1 0-.3-.1-.5-.3-.7L13 36.6V34h17c1.1 0 2-.9 2-2V8c1.1 0 2-.9 2-2V4c0-1.1-.9-2-2-2zm-2 30H-6V8h36v24zm2-26H-8V4h40v2z" id="Presentation_3"/></g><g id="Layer_9"><path class="st2" d="M12 41c.6 0 1-.4 1-1s-.4-1-1-1-1 .4-1 1 .4 1 1 1zm8-41H4C1.8 0 0 1.8 0 4v36c0 2.2 1.8 4 4 4h16c2.2 0 4-1.8 4-4V4c0-2.2-1.8-4-4-4zm2 40c0 1.1-.9 2-2 2H4c-1.1 0-2-.9-2-2v-2h20v2zm0-4H2V8h20v28zm0-30H2V4c0-1.1.9-2 2-2h16c1.1 0 2 .9 2 2v2zm-9-3h-2c-.6 0-1 .4-1 1s.4 1 1 1h2c.6 0 1-.4 1-1s-.4-1-1-1z" id="Mobile"/></g><g id="Layer_10" class="st0"><path class="st1 st2" d="M24 17.6v-5.9C24 5.3 18.6 0 12 0S0 5.3 0 11.7v5.9c-2.2 0-4 1.8-4 3.9v17.6c0 2.2 1.8 3.9 4 3.9h24c2.2 0 4-1.8 4-3.9V21.5c0-2.2-1.8-3.9-4-3.9zM2 11.7C2 6.3 6.5 2 12 2s10 4.4 10 9.8v5.9H2v-6zm24 27.4c0 1.1-.9 2-2 2H0c-1.1 0-2-.9-2-2V21.5c0-1.1.9-2 2-2h24c1.1 0 2 .9 2 2v17.6zM12 25.4c-2.2 0-4 1.8-4 3.9 0 1 .4 1.9 1 2.6v.3c0 1.6 1.3 2.9 3 2.9s3-1.3 3-2.9v-.3c.6-.7 1-1.6 1-2.6 0-2.1-1.8-3.9-4-3.9zm1 5.6v1.2c0 .5-.4 1-1 1s-1-.4-1-1V31c-.6-.3-1-1-1-1.7 0-1.1.9-2 2-2s2 .9 2 2c0 .7-.4 1.4-1 1.7z" id="Lock_x40_2x.png"/></g><g id="Layer_11" class="st0"><path class="st1 st2" d="M10-4C-2.2-4-12 5.8-12 18s9.8 22 22 22 22-9.8 22-22S22.2-4 10-4zm0 2c5.2 0 9.9 2 13.4 5.2l-4.9 5C16.2 6.2 13.2 5 10 5S3.8 6.2 1.5 8.1l-4.9-5C.1 0 4.8-2 10-2zm11 20c0 6.1-4.9 11-11 11S-1 24.1-1 18 3.9 7 10 7s11 4.9 11 11zm-31 0c0-5.2 2-9.9 5.2-13.4l4.9 5C-1.8 11.8-3 14.8-3 18s1.2 6.2 3.1 8.5l-4.9 4.9C-8 27.9-10 23.2-10 18zm20 20c-5.2 0-9.9-2-13.4-5.2l4.9-5c2.3 2 5.3 3.2 8.5 3.2s6.2-1.2 8.5-3.1l4.9 5C19.9 36 15.2 38 10 38zm14.8-6.6l-4.9-4.9c1.9-2.3 3.1-5.2 3.1-8.5 0-3.2-1.2-6.2-3.1-8.5l4.9-5C28 8.1 30 12.8 30 18c0 5.2-2 9.9-5.2 13.4z" id="Life_Preserver_x40_2x.png"/></g><g id="Layer_12" class="st0"><path class="st1 st2" d="M12 18c-1.7 0-3 1.3-3 3s1.3 3 3 3 3-1.3 3-3-1.3-3-3-3zm0-11C-.2 7-10 17-10 21s9.8 14 22 14 22-10 22-14S24.2 7 12 7zm0 26C1 33-8 24.4-8 21S1 9 12 9s20 8.6 20 12-9 12-20 12zm0-22C6.5 11 2 15.5 2 21s4.5 10 10 10 10-4.5 10-10-4.5-10-10-10zm0 18c-4.4 0-8-3.6-8-8s3.6-8 8-8 8 3.6 8 8-3.6 8-8 8z" id="Eye_x40_2x.png"/></g><g id="Layer_13" class="st0"><path class="st1 st2" d="M-5 11h34c.6 0 1-.4 1-1s-.4-1-1-1H-5c-.6 0-1 .4-1 1s.4 1 1 1zm6 6h-2c-.6 0-1 .4-1 1s.4 1 1 1h2c.6 0 1-.4 1-1s-.4-1-1-1zM-1 7h26c.6 0 1-.4 1-1s-.4-1-1-1H-1c-.6 0-1 .4-1 1s.4 1 1 1zm11.2 15.5c0 .2 0 .4.1.6.1.2.2.3.3.4.1.1.3.2.5.3.2.1.3.1.4.2v-2.7c-.5 0-.7.1-1 .3-.2 0-.3.4-.3.9zM25 31h-2c-.6 0-1 .4-1 1s.4 1 1 1h2c.6 0 1-.4 1-1s-.4-1-1-1zm7-18H-8c-1.1 0-2 .9-2 2v20c0 1.1.9 2 2 2h40c1.1 0 2-.9 2-2V15c0-1.1-.9-2-2-2zm-39 2c.6 0 1 .4 1 1s-.4 1-1 1-1-.4-1-1 .4-1 1-1zm0 20c-.6 0-1-.4-1-1s.4-1 1-1 1 .4 1 1-.4 1-1 1zm38 0c-.6 0-1-.4-1-1s.4-1 1-1 1 .4 1 1-.4 1-1 1zm1-3.8c-.3-.1-.6-.2-1-.2-1.7 0-3 1.3-3 3 0 .4.1.7.2 1H-4.2c.1-.3.2-.6.2-1 0-1.7-1.3-3-3-3-.4 0-.7.1-1 .2V18.8c.3.1.6.2 1 .2 1.7 0 3-1.3 3-3 0-.4-.1-.7-.2-1h32.4c-.1.3-.2.6-.2 1 0 1.7 1.3 3 3 3 .4 0 .7-.1 1-.2v12.4zM31 17c-.6 0-1-.4-1-1s.4-1 1-1 1 .4 1 1-.4 1-1 1zm-19 0c-4.4 0-8 3.6-8 8s3.6 8 8 8 8-3.6 8-8-3.6-8-8-8zm3.2 11.3c-.2.4-.4.7-.7.9-.3.2-.6.4-1 .6-.4.1-.7.2-1.1.2v1h-.8v-.9c-.5 0-.8-.1-1.2-.2-.4-.1-.7-.4-1-.6-.3-.3-.5-.6-.7-1-.2-.4-.2-.8-.2-1.3H10c0 .6.1 1.1.4 1.4.3.3.6.5 1.2.5v-3.3c-.4-.1-.6-.2-1-.4-.4-.1-.7-.3-1-.5-.3-.2-.5-.5-.7-.8-.2-.3-.3-.8-.3-1.3 0-.4.1-.8.2-1.1.2-.3.4-.6.7-.8.3-.2.6-.4 1-.5.4-.1.6-.2 1-.2v-1h.8v.9c.4 0 .7.1 1 .2.4.1.7.3.9.5.3.2.5.5.6.8.2.3.2.7.2 1.2h-1.5c0-.5-.1-.8-.4-1.1-.2-.2-.5-.4-.9-.4V24c.4.1.7.2 1.1.4.4.1.7.3 1 .6.3.2.5.5.7.8.2.3.3.7.3 1.2.2.5.1 1-.1 1.3zm-1.8-2.1c-.2-.1-.3-.2-.5-.3-.2-.1-.3-.1-.5-.2v3.2c.5 0 .8-.2 1.1-.4.3-.2.5-.6.5-1.2 0-.3 0-.5-.1-.6-.2-.3-.3-.4-.5-.5z" id="Paper_Dollars_1"/></g><g id="Layer_14" class="st0"><path class="st1 st2" d="M-3.2 23.6L-11 43l19.4-7.8c-.3 0-.7.1-1 .1-5.9 0-11.3-5.7-10.6-11.7zm-4.2 15.8l3.6-9.1c.5.9 1.1 1.8 1.8 2.5C-.9 34 .3 35 1.6 35.7l-9 3.7zm40-40.1c-.2-.2-.7-.3-1.6-.3-4.2 0-15.2 3.1-21.1 9-1.4 1.4-6 5.6-7.1 7.1-3.5.9-8.5 2.8-11.3 5.7 0 0 3.4 0 7.6 2.7-.6 2.5.2 5.1 2.3 7.2C3.1 32.3 5 33.1 7 33.1c.6 0 1.1-.1 1.7-.2 2.7 4.2 2.7 7.6 2.7 7.6 2.8-2.8 4.7-7.9 5.7-11.3 1.4-1.1 5.7-5.7 7.1-7.1 6.9-7 9.9-21.3 8.4-22.8zM15 28.7c-.7 2.7-1.7 5.1-2.8 7.1-.4-1.2-1.1-2.5-2-3.9-.4-.6-1-.9-1.7-.9-.2 0-.3 0-.5.1-.2-.1-.6 0-1 0-1.5 0-2.9-.7-4.1-1.9-1.6-1.6-2.2-3.5-1.8-5.3.2-.8-.1-1.7-.9-2.2-1.4-.9-2.7-1.5-3.9-2 2-1.1 4.4-2 7.1-2.8.1 0 .1 0 .1-.1l11.6 11.6c0 .2-.1.2-.1.3zm7.6-8c-.4.4-1 1-1.7 1.8-1.3 1.3-3.3 3.4-4.4 4.5L5 15.6c1.1-1.2 3.2-3.2 4.5-4.4.8-.7 1.4-1.3 1.8-1.7C16.7 4 27.1 1 31 1c0 3.2-2.7 14.1-8.4 19.7zM10 15c-.6 0-1 .4-1 1s.4 1 1 1 1-.4 1-1-.4-1-1-1zm3 5c.6 0 1-.4 1-1s-.4-1-1-1-1 .4-1 1 .4 1 1 1zm3 3c.6 0 1-.4 1-1s-.4-1-1-1-1 .4-1 1 .4 1 1 1zm6-10c1.7 0 3-1.3 3-3s-1.3-3-3-3-3 1.3-3 3 1.3 3 3 3zm0-4c.6 0 1 .4 1 1s-.4 1-1 1-1-.4-1-1 .4-1 1-1z" id="Rocket"/></g><g id="Layer_15" class="st0"><path class="st1 st2" d="M33 17c.6 0 1-.4 1-1v-4c0-.4-.2-.7-.5-.9l-21-12c-.2 0-.3-.1-.5-.1s-.3.1-.5.1l-21 12c-.3.2-.5.5-.5.9v4c0 .6.4 1 1 1h3v18h-1c-.4 0-.8.3-.9.7l-2 6c0 .1-.1.2-.1.3 0 .6.4 1 1 1h42c.6 0 1-.4 1-1 0-.1 0-.2-.1-.3l-2-6c-.1-.4-.5-.7-.9-.7h-1V17h3zM12 1.2L29.2 11H-5.2L12 1.2zM30.3 37l1.3 4H-7.6l1.3-4h36.6zM-4 35V17h4v18h-4zm6 0V17h4v18H2zm6 0V17h8v18H8zm10 0V17h4v18h-4zm6 0V17h4v18h-4zM-8 15v-2h40v2H-8z" id="Old_Building_x40_2x.png"/></g></svg>