<svg xmlns="http://www.w3.org/2000/svg" viewBox="0 0 43.9 44"><style>.st0{display:none}.st1{display:inline}.st2{fill:#555}.st3{fill:#fff}</style><g id="Layer_1" class="st0"><path class="st1 st2" d="M154.9 40h24c.6 0 1-.4 1-1s-.4-1-1-1h-24c-.6 0-1 .4-1 1s.5 1 1 1zm24-18h-8c-.6 0-1 .4-1 1s.4 1 1 1h8c.6 0 1-.4 1-1s-.4-1-1-1zm0-4c.6 0 1-.4 1-1s-.4-1-1-1-1 .4-1 1 .5 1 1 1zm-27-10h31c.6 0 1-.4 1-1s-.4-1-1-1h-31c-.6 0-1 .4-1 1s.5 1 1 1zm3-4h26c.6 0 1-.4 1-1s-.4-1-1-1h-26c-.6 0-1 .4-1 1s.5 1 1 1zm24 22h-8c-.6 0-1 .4-1 1s.4 1 1 1h8c.6 0 1-.4 1-1s-.4-1-1-1zm-4-8c.6 0 1-.4 1-1s-.4-1-1-1-1 .4-1 1 .5 1 1 1zm4 12h-8c-.6 0-1 .4-1 1s.4 1 1 1h8c.6 0 1-.4 1-1s-.4-1-1-1zm-24 2h10c.6 0 1-.4 1-1v-8c0-.6-.4-1-1-1h-10c-.6 0-1 .4-1 1v8c0 .6.5 1 1 1zm1-8h8v6h-8v-6zm-1 12h24c.6 0 1-.4 1-1s-.4-1-1-1h-24c-.6 0-1 .4-1 1s.5 1 1 1zm29-26h-34c-1.1 0-2 .9-2 2v4h-4c-1.1 0-2 .9-2 2v22c0 3.3 2.7 6 6 6h36c1.1 0 2-.9 2-2V12c0-1.1-.9-2-2-2zm0 34h-36c-2.2 0-4-1.8-4-4V18h4v21c0 .6.4 1 1 1s1-.4 1-1V12h34v32zm-25-26c.6 0 1-.4 1-1s-.4-1-1-1-1 .4-1 1 .5 1 1 1zm-4 0c.6 0 1-.4 1-1s-.4-1-1-1-1 .4-1 1 .5 1 1 1zm8 0h8c.6 0 1-.4 1-1s-.4-1-1-1h-8c-.6 0-1 .4-1 1s.5 1 1 1z" id="Newspapers_x40_2x.png"/></g><g id="Layer_2" class="st0"><path class="st1 st2" d="M172.9 33.2s-3.6-.9-3.6-4.6c0-3.3 1.5-4.4 2-5.2 0 0 1.2-1 .4-4.3 1.3-1.8 1.7-4.8.1-8.4-.9-2.1-1.7-3.3-2.9-4-.9-.5-1.9-.7-2.8-.7-1.8 0-3.5.6-4.2 1.1-2 .9-3.3 1.7-4.6 4.9-1.1 2.6.2 5.5.8 7-.8 3.3.3 4.4.3 4.4.6.8 2 2 2 5.2 0 3.7-3.6 4.6-3.6 4.6-2.3.8-7 2.4-7 7.8 0 0 0 1 1 1h28c1 0 1-1 1-1 .1-5.4-4.6-7-6.9-7.8zM152 40c.5-2.8 2.9-3.9 5.5-4.8h.1c1.8-.5 5-2.4 5-6.5 0-3.5-1.4-5.2-2.2-6.1-.2-.2-.3-.4-.3-.4-.1-.1-.4-.9.1-2.7.2-.9-.1-1.3-.1-1.3-.5-1.2-1.6-3.5-.8-5.4 1-2.6 1.9-3.1 3.6-3.8.1 0 .2-.1.3-.2.3-.2 1.6-.8 3.1-.8.7 0 1.4.1 1.9.4.6.3 1.2 1 2 3 1.6 3.7.6 5.7.1 6.4-.3.5-.5 1.1-.3 1.6.4 1.7.1 2.4.1 2.5 0 0-.3.3-.4.5-.8.9-2.2 2.6-2.2 6.1 0 4.1 3.2 6 5 6.5h.1c2.5.9 5 2 5.5 4.8H152zm-4.2-7.1c1.3-.4 3.7-1.9 3.7-5.3 0-3.1-1-4.4-1.5-5.2l-.1-.1c0-.1-.2-.7.1-1.8.1-.4 0-.9-.1-1.3-.4-.9-1.2-2.5-.6-3.8.9-2.1 1.2-2.3 2.2-2.7.1 0 .2-.1.3-.1.2-.2 1.3-.5 2.3-.5.5 0 .9.1 1.2.3.1-.3.2-.7.3-1 .1-.3.3-.6.4-.8-.6-.3-1.3-.4-2-.4-1.4 0-2.8.5-3.4.8-1.6.7-2.3 1.3-3.3 3.8-.9 2.1.2 4.3.7 5.4-.6 2.6.2 3.5.2 3.5.5.6 1.2 1.5 1.2 4.1 0 2.9-2.2 3.4-2.2 3.4-1.8.6-4.2 2-4.2 6 0 0 0 1 1 1h4.5c.2-.7.6-1.4.9-2h-4.3c.2-2.1 1.4-2.8 2.7-3.3zm34.9-1.9s-2.2-.5-2.2-3.4c0-2.6.8-3.5 1.2-4.1 0 0 .9-.9.2-3.5.5-1.1 1.6-3.4.7-5.4-1-2.5-1.7-3.1-3.3-3.8-.5-.3-1.9-.8-3.4-.8-.7 0-1.4.1-2 .4.3.6.5 1.3.6 1.9h.1c.3-.2.8-.3 1.3-.3 1 0 2 .4 2.3.5.1.1.2.1.3.1 1 .4 1.4.6 2.2 2.7.5 1.2-.2 2.9-.6 3.8-.2.4-.2.9-.1 1.3.3 1.1.1 1.6.1 1.8l-.1.1c-.5.7-1.5 2.1-1.5 5.2 0 3.4 2.3 5 3.7 5.3 1.3.5 2.5 1.2 2.8 3.1h-4.3c.4.6.7 1.3.9 2h4.5c1 0 1-1 1-1-.2-3.9-2.6-5.3-4.4-5.9z" id="Users_2_x40_2x.png"/></g><g id="Layer_3" class="st0"><g id="Video_Camera_3" class="st1"><g id="XMLID_1_"><path class="st3" d="M-11.1 48h4c.6 0 1-.5 1-1s-.4-1-1-1h-4v-6.7c4.7-1.7 8-6.1 8-11.3v-1h16c1.1 0 2 .9 2 2v20c0 1.1-.9 2-2 2h-22c-1.1 0-2-.9-2-2v-1z"/><path class="st2" d="M28.9 46.5v-15l-8 3.2v8.7l8 3.1zm-10-2.5V34c0-.4.2-.7.6-.9l9.9-4c.1-.1.3-.1.4-.1.6 0 1 .5 1 1v18c0 .5-.4 1-1 1-.2 0-.3 0-.4-.1l-9.9-4c-.3-.2-.6-.5-.6-.9zm-24-19h2v2h-2z"/><path class="st3" d="M-3.1 25h-2c0-.5.5-1 1-1s1 .5 1 1z"/><path class="st2" d="M-7.1 25h2v2h-2z"/><path class="st3" d="M-11.1 37.2c3.5-1.5 6-5.1 6-9.2v-1h2v1c0 5.2-3.3 9.7-8 11.3v-2.1zm4 8.8c.6 0 1 .5 1 1s-.4 1-1 1h-4v-2h4z"/><path class="st2" d="M-9.1 25h2v2h-2z"/><path class="st3" d="M-7.1 28c0 3-1.6 5.5-4 6.9v-2.5c1.2-1.1 2-2.7 2-4.5v-1h2V28z"/><path class="st2" d="M-13.1 46h2v2h-2zm2-6.7V46h-2v-6.2c.7-.1 1.4-.3 2-.5z"/><path class="st2" d="M-11.1 37.2v2.2c-.6.2-1.3.4-2 .5v-2c.7-.2 1.4-.5 2-.7zm0-2.3v2.2c-.6.3-1.3.5-2 .6v-2c.8-.1 1.4-.4 2-.8z"/><path class="st2" d="M-11.1 32.5V35c-.6.4-1.3.6-2 .8v-2.1c.8-.3 1.5-.7 2-1.2z"/><path class="st2" d="M-9.1 27c-1.1 0-2 .9-2 2v3.5c-.6.5-1.2.9-2 1.2V29c0-2.2 1.8-4 4-4v2zm0 24h22c1.1 0 2-.9 2-2V29c0-1.1-.9-2-2-2h-16v-2h16c2.2 0 4 1.8 4 4v20c0 2.2-1.8 4-4 4h-22c-2.2 0-4-1.8-4-4v-1h2v1c0 1.1.9 2 2 2z"/><path class="st2" d="M-15.1 34c.7 0 1.4-.1 2-.3v2.1c-.6.2-1.3.2-2 .2-4.4 0-8-3.6-8-8V12c0-4.4 3.6-8 8-8s8 3.6 8 8v13h-2v-3h-12v6c0 3.3 2.7 6 6 6zm6-22c0-3.3-2.7-6-6-6s-6 2.7-6 6v8h12v-8z"/><path class="st2" d="M-15.1 38c.7 0 1.4-.1 2-.2v2c-.3.1-.7.1-1 .1v6h1v2h-10c-.5 0-1-.5-1-1s.5-1 1-1h7v-6c-6.2-.5-11-5.7-11-12v-3c0-.5.5-1 1-1 .6 0 1 .5 1 1v3c0 5.6 4.5 10.1 10 10.1z"/></g></g></g><g id="Layer_4" class="st0"><path class="st1 st2" d="M18.9 33c0-.6-.4-1-1-1-.3 0-.5.1-.7.3l-10 10c-.2.2-.3.4-.3.7 0 .6.4 1 1 1 .3 0 .5-.1.7-.3l10-10c.2-.2.3-.4.3-.7zm-6.2.7l1-1c.2-.2.3-.4.3-.7 0-.6-.4-1-1-1-.3 0-.5.1-.7.3l-1 1c-.2.2-.3.4-.3.7 0 .6.4 1 1 1 .2 0 .5-.1.7-.3zm6.2 3.3c-.3 0-.5.1-.7.3l-3 3c-.2.2-.3.4-.3.7 0 .6.4 1 1 1 .3 0 .5-.1.7-.3l3-3c.2-.2.3-.4.3-.7 0-.6-.4-1-1-1zm28-32c0-.6-.4-1-1-1-.2 0-.3 0-.4.1l-42 18c-.3.2-.6.5-.6.9 0 .5.3.8.7.9l16.5 6.8L27 47.3c.1.4.5.7.9.7s.7-.2.9-.6l18-42c.1-.1.1-.2.1-.4zM6.5 23l35-15-20.8 20.8L6.5 23zM28 44.4l-5.8-14.2L43 9.4l-15 35z" id="Paper_Airplane_x40_2x.png"/></g><g id="Layer_5" class="st0"><path class="st1 st2" d="M38.9 36H25.8c-.4-1.7-2-3-3.9-3s-3.4 1.3-3.9 3H8.9c-.6 0-1 .4-1 1s.4 1 1 1H18c.4 1.7 2 3 3.9 3s3.4-1.3 3.9-3h13.1c.6 0 1-.4 1-1s-.4-1-1-1zm-17 3c-1.1 0-2-.9-2-2s.9-2 2-2 2 .9 2 2-.9 2-2 2zm20-35h-36c-2.2 0-4 1.8-4 4v36c0 2.2 1.8 4 4 4h36c2.2 0 4-1.8 4-4V8c0-2.2-1.7-4-4-4zm2 40c0 1.1-.9 2-2 2h-36c-1.1 0-2-.9-2-2V8c0-1.1.9-2 2-2h36c1.1 0 2 .9 2 2v36zm-5-19h-3.1c-.4-1.7-2-3-3.9-3s-3.4 1.3-3.9 3H8.9c-.6 0-1 .4-1 1s.4 1 1 1H28c.4 1.7 2 3 3.9 3s3.4-1.3 3.9-3h3.1c.6 0 1-.4 1-1s-.4-1-1-1zm-7 3c-1.1 0-2-.9-2-2s.9-2 2-2 2 .9 2 2-.9 2-2 2zm7-14H21.8c-.4-1.7-2-3-3.9-3s-3.4 1.3-3.9 3H8.9c-.6 0-1 .4-1 1s.4 1 1 1H14c.4 1.7 2 3 3.9 3s3.4-1.3 3.9-3h17.1c.6 0 1-.4 1-1s-.4-1-1-1zm-21 3c-1.1 0-2-.9-2-2s.9-2 2-2 2 .9 2 2-.9 2-2 2z" id="Toggles_3_x40_2x.png"/></g><g id="Layer_6" class="st0"><path class="st1 st2" d="M20.9 23c0-.6-.4-1-1-1s-1 .4-1 1 .4 1 1 1 1-.4 1-1zm3 1c.6 0 1-.4 1-1s-.4-1-1-1-1 .4-1 1 .5 1 1 1zm18-8V9.8c1.2-.4 2-1.5 2-2.8 0-1.7-1.3-3-3-3s-3 1.3-3 3c0 1.3.8 2.4 2 2.8V16h-4v-2c0-1.1-.9-2-2-2h-20c-1.1 0-2 .9-2 2v2h-6c-2.2 0-4 1.8-4 4v24c0 2.2 1.8 4 4 4h36c2.2 0 4-1.8 4-4V20c0-2.2-1.7-4-4-4zm-28-2h20v2h-20v-2zm28 32h-36c-1.1 0-2-.9-2-2h40c0 1.1-.9 2-2 2zm2-24h-3c-.6 0-1 .4-1 1s.4 1 1 1h3v5h-4.1c-.5-2.8-2.9-5-5.9-5-3.3 0-6 2.7-6 6s2.7 6 6 6c3 0 5.4-2.2 5.9-5h4.1v11h-40V31H8c.5 2.8 2.9 5 5.9 5 3.3 0 6-2.7 6-6s-2.7-6-6-6c-3 0-5.4 2.2-5.9 5H3.9v-5h3c.6 0 1-.4 1-1s-.4-1-1-1h-3v-2c0-1.1.9-2 2-2h36c1.1 0 2 .9 2 2v2zm-6 8c0 2.2-1.8 4-4 4s-4-1.8-4-4 1.8-4 4-4 4 1.8 4 4zm-28 0c0-2.2 1.8-4 4-4s4 1.8 4 4-1.8 4-4 4-4-1.8-4-4zm16 10h4v-2h-4v2zm2-18c-.6 0-1 .4-1 1s.4 1 1 1 1-.4 1-1-.4-1-1-1zm-10 18h4v-2h-4v2zm8-12h-4v4h4v-4z" id="Boom_Box"/></g><g id="Layer_7" class="st0"><path class="st1 st3" d="M39.9 40.6c-.1-.1-.1-.3-.2-.3l-8.8-12.7c-.1-.4-.5-.6-.9-.6-.3 0-.5.1-.7.3l-4.2 4.2-5.2-7.8c-.2-.4-.5-.6-.9-.6-.3 0-.6.2-.8.5l-10 17c-.2 0-.3.2-.3.4 0 .6.4 1 1 1h30c.6 0 1-.4 1-1v-.4zM10.7 40L19 25.9l5 7.5c0 .1.1.2.2.3.2.2.4.3.7.3s.5-.1.7-.3l4.2-4.2L37.1 40H10.7zm2.2-20c2.8 0 5-2.2 5-5s-2.2-5-5-5-5 2.2-5 5 2.3 5 5 5zm0-8c1.7 0 3 1.3 3 3s-1.3 3-3 3-3-1.3-3-3 1.4-3 3-3zm29-8h-36c-2.2 0-4 1.8-4 4v36c0 2.2 1.8 4 4 4h36c2.2 0 4-1.8 4-4V8c0-2.2-1.7-4-4-4zm2 40c0 1.1-.9 2-2 2h-36c-1.1 0-2-.9-2-2V8c0-1.1.9-2 2-2h36c1.1 0 2 .9 2 2v36z" id="Photo_x40_2x.png"/></g><g id="Layer_8" class="st0"><path class="st1 st2" d="M26.9 26h4c.6 0 1-.4 1-1s-.4-1-1-1h-4c-.6 0-1 .4-1 1s.5 1 1 1zm0-4h10c.6 0 1-.4 1-1s-.4-1-1-1h-10c-.6 0-1 .4-1 1s.5 1 1 1zm0-4h6c.6 0 1-.4 1-1s-.4-1-1-1h-6c-.6 0-1 .4-1 1s.5 1 1 1zm-15 12h8c1.1 0 2-.9 2-2V18c0-1.1-.9-2-2-2h-8c-1.1 0-2 .9-2 2v10c0 1.1.9 2 2 2zm0-12h8v10h-8V18zm15 12h10c.6 0 1-.4 1-1s-.4-1-1-1h-10c-.6 0-1 .4-1 1s.5 1 1 1zm17-24h-18c0-1.1-.9-2-2-2s-2 .9-2 2h-18c-1.1 0-2 .9-2 2v2c0 1.1.9 2 2 2v24c0 1.1.9 2 2 2h17v2.6l-5.7 5.7c-.2.2-.3.4-.3.7 0 .6.4 1 1 1 .3 0 .5-.1.7-.3l5.3-5.3 5.3 5.3c.2.2.4.3.7.3.6 0 1-.4 1-1 0-.3-.1-.5-.3-.7l-5.7-5.7V38h17c1.1 0 2-.9 2-2V12c1.1 0 2-.9 2-2V8c0-1.1-.9-2-2-2zm-2 30h-36V12h36v24zm2-26h-40V8h40v2z" id="Presentation_3"/></g><g id="Layer_9" class="st0"><path class="st1 st2" d="M23.9 45c.6 0 1-.4 1-1s-.4-1-1-1-1 .4-1 1 .5 1 1 1zm8-41h-16c-2.2 0-4 1.8-4 4v36c0 2.2 1.8 4 4 4h16c2.2 0 4-1.8 4-4V8c0-2.2-1.7-4-4-4zm2 40c0 1.1-.9 2-2 2h-16c-1.1 0-2-.9-2-2v-2h20v2zm0-4h-20V12h20v28zm0-30h-20V8c0-1.1.9-2 2-2h16c1.1 0 2 .9 2 2v2zm-9-3h-2c-.6 0-1 .4-1 1s.4 1 1 1h2c.6 0 1-.4 1-1s-.4-1-1-1z" id="Mobile"/></g><g id="Layer_10" class="st0"><path class="st1 st2" d="M35.9 21.6v-5.9c0-6.5-5.4-11.7-12-11.7s-12 5.3-12 11.7v5.9c-2.2 0-4 1.8-4 3.9v17.6c0 2.2 1.8 3.9 4 3.9h24c2.2 0 4-1.8 4-3.9V25.5c0-2.2-1.7-3.9-4-3.9zm-22-5.9c0-5.4 4.5-9.8 10-9.8s10 4.4 10 9.8v5.9h-20v-5.9zm24 27.4c0 1.1-.9 2-2 2h-24c-1.1 0-2-.9-2-2V25.5c0-1.1.9-2 2-2h24c1.1 0 2 .9 2 2v17.6zm-14-13.7c-2.2 0-4 1.8-4 3.9 0 1 .4 1.9 1 2.6v.3c0 1.6 1.3 2.9 3 2.9s3-1.3 3-2.9v-.3c.6-.7 1-1.6 1-2.6 0-2.1-1.7-3.9-4-3.9zm1 5.6v1.2c0 .5-.4 1-1 1s-1-.4-1-1V35c-.6-.3-1-1-1-1.7 0-1.1.9-2 2-2s2 .9 2 2c0 .7-.4 1.4-1 1.7z" id="Lock_x40_2x.png"/></g><g id="Layer_11"><path class="st2" d="M21.9 0C9.7 0-.1 9.8-.1 22s9.8 22 22 22 22-9.8 22-22-9.8-22-22-22zm0 2c5.2 0 9.9 2 13.4 5.2l-4.9 5c-2.3-2-5.2-3.1-8.5-3.1-3.2 0-6.2 1.2-8.5 3.1l-4.9-5C12.1 4 16.8 2 21.9 2zm11 20c0 6.1-4.9 11-11 11s-11-4.9-11-11 4.9-11 11-11 11 4.9 11 11zm-31 0c0-5.2 2-9.9 5.2-13.4l4.9 5c-1.9 2.3-3.1 5.2-3.1 8.5 0 3.2 1.2 6.2 3.1 8.5l-4.9 4.9C3.9 31.9 1.9 27.2 1.9 22zm20 20c-5.2 0-9.9-2-13.4-5.2l4.9-5c2.3 1.9 5.2 3.1 8.5 3.1 3.2 0 6.2-1.2 8.5-3.1l4.9 5C31.8 40 27.1 42 21.9 42zm14.9-6.6l-4.9-4.9c1.9-2.3 3.1-5.2 3.1-8.5 0-3.2-1.2-6.2-3.1-8.5l4.9-5C40 12 42 16.7 42 21.9c-.1 5.3-2 10-5.2 13.5z" id="Life_Preserver_x40_2x.png"/></g><g id="Layer_12" class="st0"><path class="st1 st2" d="M23.9 22c-1.7 0-3 1.3-3 3s1.3 3 3 3 3-1.3 3-3-1.3-3-3-3zm0-11c-12.2 0-22 10-22 14s9.8 14 22 14 22-10 22-14-9.8-14-22-14zm0 26c-11 0-20-8.6-20-12s9-12 20-12 20 8.6 20 12-8.9 12-20 12zm0-22c-5.5 0-10 4.5-10 10s4.5 10 10 10 10-4.5 10-10-4.4-10-10-10zm0 18c-4.4 0-8-3.6-8-8s3.6-8 8-8 8 3.6 8 8-3.5 8-8 8z" id="Eye_x40_2x.png"/></g><g id="Layer_13" class="st0"><path class="st1 st2" d="M6.9 15h34c.6 0 1-.4 1-1s-.4-1-1-1h-34c-.6 0-1 .4-1 1s.5 1 1 1zm6 6h-2c-.6 0-1 .4-1 1s.4 1 1 1h2c.6 0 1-.4 1-1s-.4-1-1-1zm-2-10h26c.6 0 1-.4 1-1s-.4-1-1-1h-26c-.6 0-1 .4-1 1s.5 1 1 1zm11.2 15.5c0 .2 0 .4.1.6.1.2.2.3.3.4.1.1.3.2.5.3.2.1.3.1.4.2v-2.7c-.5 0-.7.1-1 .3-.1 0-.3.4-.3.9zM36.9 35h-2c-.6 0-1 .4-1 1s.4 1 1 1h2c.6 0 1-.4 1-1s-.4-1-1-1zm7-18h-40c-1.1 0-2 .9-2 2v20c0 1.1.9 2 2 2h40c1.1 0 2-.9 2-2V19c0-1.1-.9-2-2-2zm-39 2c.6 0 1 .4 1 1s-.4 1-1 1-1-.4-1-1 .5-1 1-1zm0 20c-.6 0-1-.4-1-1s.4-1 1-1 1 .4 1 1-.4 1-1 1zm38 0c-.6 0-1-.4-1-1s.4-1 1-1 1 .4 1 1-.4 1-1 1zm1-3.8c-.3-.1-.6-.2-1-.2-1.7 0-3 1.3-3 3 0 .4.1.7.2 1H7.8c.1-.3.2-.6.2-1 0-1.7-1.3-3-3-3-.4 0-.7.1-1 .2V22.8c.3.1.6.2 1 .2 1.7 0 3-1.3 3-3 0-.4-.1-.7-.2-1h32.4c-.1.3-.2.6-.2 1 0 1.7 1.3 3 3 3 .4 0 .7-.1 1-.2v12.4zm-1-14.2c-.6 0-1-.4-1-1s.4-1 1-1 1 .4 1 1-.4 1-1 1zm-19 0c-4.4 0-8 3.6-8 8s3.6 8 8 8 8-3.6 8-8-3.5-8-8-8zm3.3 11.3c-.2.4-.4.7-.7.9-.3.2-.6.4-1 .6-.4.1-.7.2-1.1.2v1h-.8v-.9c-.5 0-.8-.1-1.2-.2-.4-.1-.7-.4-1-.6-.3-.3-.5-.6-.7-1-.2-.4-.2-.8-.2-1.3H22c0 .6.1 1.1.4 1.4.3.3.6.5 1.2.5v-3.3c-.4-.1-.6-.2-1-.4-.4-.1-.7-.3-1-.5-.3-.2-.5-.5-.7-.8-.2-.3-.3-.8-.3-1.3 0-.4.1-.8.2-1.1.2-.3.4-.6.7-.8.3-.2.6-.4 1-.5.4-.1.6-.2 1-.2v-1h.8v.9c.4 0 .7.1 1 .2.4.1.7.3.9.5.3.2.5.5.6.8.2.3.2.7.2 1.2h-1.5c0-.5-.1-.8-.4-1.1-.2-.2-.5-.4-.9-.4V28c.4.1.7.2 1.1.4.4.1.7.3 1 .6.3.2.5.5.7.8.2.3.3.7.3 1.2.1.5 0 1-.1 1.3zm-1.8-2.1c-.2-.1-.3-.2-.5-.3-.2-.1-.3-.1-.5-.2v3.2c.5 0 .8-.2 1.1-.4.3-.2.5-.6.5-1.2 0-.3 0-.5-.1-.6-.2-.3-.4-.4-.5-.5z" id="Paper_Dollars_1"/></g><g id="Layer_14" class="st0"><path class="st1 st2" d="M8.7 27.6L1 47l19.4-7.8c-.3 0-.7.1-1 .1-6 0-11.4-5.7-10.7-11.7zM4.5 43.4l3.6-9.1c.5.9 1.1 1.8 1.8 2.5 1.1 1.2 2.3 2.2 3.6 2.9l-9 3.7zM44.6 3.3c-.2-.2-.8-.3-1.6-.3-4.2 0-15.3 3.1-21.2 9-1.4 1.4-6 5.6-7.1 7.1-3.5.9-8.5 2.8-11.3 5.7 0 0 3.4 0 7.6 2.7-.6 2.5.2 5.1 2.3 7.2 1.7 1.7 3.6 2.5 5.6 2.5.6 0 1.1-.1 1.7-.2 2.7 4.2 2.7 7.6 2.7 7.6 2.8-2.8 4.7-7.9 5.7-11.3 1.4-1.1 5.7-5.7 7.1-7.1C43 19.1 46 4.8 44.6 3.3zM27 32.7c-.7 2.7-1.7 5.1-2.8 7.1-.4-1.2-1.1-2.5-2-3.9-.4-.6-1-.9-1.7-.9-.2 0-.3 0-.5.1-.4.1-.8.1-1.2.1-1.5 0-2.9-.7-4.1-1.9-1.6-1.6-2.2-3.5-1.8-5.3.2-.8-.1-1.7-.9-2.2-1.4-.9-2.7-1.5-3.9-2 2-1.1 4.4-2 7.1-2.8.1 0 .1 0 .1-.1L27 32.5v.2zm7.6-8c-.4.4-1 1-1.7 1.8-1.3 1.3-3.3 3.4-4.4 4.5L16.9 19.6c1.1-1.2 3.2-3.2 4.5-4.4.8-.7 1.4-1.3 1.8-1.7C28.7 8 39.1 5 42.9 5c0 3.2-2.7 14.1-8.3 19.7zM21.9 19c-.6 0-1 .4-1 1s.4 1 1 1 1-.4 1-1-.4-1-1-1zm3 5c.6 0 1-.4 1-1s-.4-1-1-1-1 .4-1 1 .5 1 1 1zm3 3c.6 0 1-.4 1-1s-.4-1-1-1-1 .4-1 1 .5 1 1 1zm6-10c1.7 0 3-1.3 3-3s-1.3-3-3-3-3 1.3-3 3 1.4 3 3 3zm0-4c.6 0 1 .4 1 1s-.4 1-1 1-1-.4-1-1 .5-1 1-1z" id="Rocket"/></g><g id="Layer_15" class="st0"><path class="st1 st2" d="M44.9 21c.6 0 1-.4 1-1v-4c0-.4-.2-.7-.5-.9l-21-12c-.1 0-.3-.1-.5-.1s-.3.1-.5.1l-21 12c-.3.2-.5.5-.5.9v4c0 .6.4 1 1 1h3v18h-1c-.4 0-.8.3-.9.7l-2 6c0 .1-.1.2-.1.3 0 .6.4 1 1 1h42c.6 0 1-.4 1-1 0-.1 0-.2-.1-.3l-2-6c-.1-.4-.5-.7-.9-.7h-1V21h3zm-21-15.8L41.2 15H6.7l17.2-9.8zM42.2 41l1.3 4H4.3l1.3-4h36.6zM7.9 39V21h4v18h-4zm6 0V21h4v18h-4zm6 0V21h8v18h-8zm10 0V21h4v18h-4zm6 0V21h4v18h-4zm-32-20v-2h40v2h-40z" id="Old_Building_x40_2x.png"/></g></svg>