<svg xmlns="http://www.w3.org/2000/svg" viewBox="0 0 32 43"><style>.st0{display:none}.st1{display:inline}.st2{fill:#555}.st3{fill:#fff}</style><g id="Layer_1" class="st0"><path class="st1 st2" d="M147 36h24c.6 0 1-.4 1-1s-.4-1-1-1h-24c-.6 0-1 .4-1 1s.4 1 1 1zm24-18h-8c-.6 0-1 .4-1 1s.4 1 1 1h8c.6 0 1-.4 1-1s-.4-1-1-1zm0-4c.6 0 1-.4 1-1s-.4-1-1-1-1 .4-1 1 .4 1 1 1zM144 4h31c.6 0 1-.4 1-1s-.4-1-1-1h-31c-.6 0-1 .4-1 1s.4 1 1 1zm3-4h26c.6 0 1-.4 1-1s-.4-1-1-1h-26c-.6 0-1 .4-1 1s.4 1 1 1zm24 22h-8c-.6 0-1 .4-1 1s.4 1 1 1h8c.6 0 1-.4 1-1s-.4-1-1-1zm-4-8c.6 0 1-.4 1-1s-.4-1-1-1-1 .4-1 1 .4 1 1 1zm4 12h-8c-.6 0-1 .4-1 1s.4 1 1 1h8c.6 0 1-.4 1-1s-.4-1-1-1zm-24 2h10c.6 0 1-.4 1-1v-8c0-.6-.4-1-1-1h-10c-.6 0-1 .4-1 1v8c0 .6.4 1 1 1zm1-8h8v6h-8v-6zm-1 12h24c.6 0 1-.4 1-1s-.4-1-1-1h-24c-.6 0-1 .4-1 1s.4 1 1 1zm29-26h-34c-1.1 0-2 .9-2 2v4h-4c-1.1 0-2 .9-2 2v22c0 3.3 2.7 6 6 6h36c1.1 0 2-.9 2-2V8c0-1.1-.9-2-2-2zm0 34h-36c-2.2 0-4-1.8-4-4V14h4v21c0 .6.4 1 1 1s1-.4 1-1V8h34v32zm-25-26c.6 0 1-.4 1-1s-.4-1-1-1-1 .4-1 1 .4 1 1 1zm-4 0c.6 0 1-.4 1-1s-.4-1-1-1-1 .4-1 1 .4 1 1 1zm8 0h8c.6 0 1-.4 1-1s-.4-1-1-1h-8c-.6 0-1 .4-1 1s.4 1 1 1z" id="Newspapers_x40_2x.png"/></g><g id="Layer_2" class="st0"><path class="st1 st2" d="M165 29.2s-3.6-.9-3.6-4.6c0-3.3 1.5-4.4 2-5.2 0 0 1.2-1 .4-4.3 1.3-1.8 1.7-4.8.1-8.4-.9-2.1-1.7-3.3-2.9-4-.9-.5-1.9-.7-2.8-.7-1.8 0-3.5.6-4.2 1.1-2 .9-3.3 1.7-4.6 4.9-1.1 2.6.2 5.5.8 7-.8 3.3.3 4.4.3 4.4.6.8 2 2 2 5.2 0 3.7-3.6 4.6-3.6 4.6-2.3.8-7 2.4-7 7.8 0 0 0 1 1 1h28c1 0 1-1 1-1 .1-5.4-4.7-7-6.9-7.8zM144.1 36c.5-2.8 2.9-3.9 5.5-4.8h.1c1.8-.5 5-2.4 5-6.5 0-3.5-1.4-5.2-2.2-6.1-.2-.2-.3-.4-.3-.4-.1-.1-.4-.9.1-2.7.2-.9-.1-1.3-.1-1.3-.5-1.2-1.6-3.5-.8-5.4 1-2.6 1.9-3.1 3.6-3.8.1 0 .2-.1.3-.2.3-.2 1.6-.8 3.1-.8.7 0 1.4.1 1.9.4.6.3 1.2 1 2 3 1.6 3.7.6 5.7.1 6.4-.3.5-.5 1.1-.3 1.6.4 1.7.1 2.4.1 2.5 0 0-.3.3-.4.5-.8.9-2.2 2.6-2.2 6.1 0 4.1 3.2 6 5 6.5h.1c2.5.9 5 2 5.5 4.8h-26.1zm-4.3-7.1c1.3-.4 3.7-1.9 3.7-5.3 0-3.1-1-4.4-1.5-5.2l-.1-.1c0-.1-.2-.7.1-1.8.1-.4 0-.9-.1-1.3-.4-.9-1.2-2.5-.6-3.8.9-2.1 1.2-2.3 2.2-2.7.1 0 .2-.1.3-.1.2-.2 1.3-.5 2.3-.5.5 0 .9.1 1.2.3.1-.3.2-.7.3-1 .1-.3.3-.6.4-.8-.6-.3-1.3-.4-2-.4-1.4 0-2.8.5-3.4.8-1.6.7-2.3 1.3-3.3 3.8-.9 2.1.2 4.3.7 5.4-.6 2.6.2 3.5.2 3.5.5.6 1.2 1.5 1.2 4.1 0 2.9-2.2 3.4-2.2 3.4-1.8.6-4.2 2-4.2 6 0 0 0 1 1 1h4.5c.2-.7.6-1.4.9-2h-4.3c.3-2.1 1.5-2.8 2.7-3.3zm35-1.9s-2.2-.5-2.2-3.4c0-2.6.8-3.5 1.2-4.1 0 0 .9-.9.2-3.5.5-1.1 1.6-3.4.7-5.4-1-2.5-1.7-3.1-3.3-3.8-.6-.3-1.9-.8-3.4-.8-.7 0-1.4.1-2 .4.3.6.5 1.3.6 1.9h.1c.3-.2.8-.3 1.3-.3 1 0 2 .4 2.3.5.1.1.2.1.3.1 1 .4 1.4.6 2.2 2.7.5 1.2-.2 2.9-.6 3.8-.2.4-.2.9-.1 1.3.3 1.1.1 1.6.1 1.8l-.1.1c-.5.7-1.5 2.1-1.5 5.2 0 3.4 2.3 5 3.7 5.3 1.3.5 2.5 1.2 2.8 3.1h-4.3c.4.6.7 1.3.9 2h4.5c1 0 1-1 1-1-.2-3.9-2.6-5.3-4.4-5.9z" id="Users_2_x40_2x.png"/></g><g id="Layer_3" class="st0"><g id="Video_Camera_3" class="st1"><g id="XMLID_1_"><path class="st3" d="M-19 44h4c.6 0 1-.5 1-1s-.4-1-1-1h-4v-6.7c4.7-1.7 8-6.1 8-11.3v-1H5c1.1 0 2 .9 2 2v20c0 1.1-.9 2-2 2h-22c-1.1 0-2-.9-2-2v-1z"/><path class="st2" d="M21 42.5v-15l-8 3.2v8.7l8 3.1zM11 40V30c0-.4.2-.7.6-.9h.1l9.9-4c.1-.1.2-.1.4-.1.5 0 1 .5 1 1v18c0 .5-.5 1-1 1-.2 0-.3 0-.4-.1l-9.9-4h-.1c-.4-.2-.6-.5-.6-.9zm-24-19h2v2h-2z"/><path class="st3" d="M-11 21h-2c0-.5.4-1 1-1s1 .5 1 1z"/><path class="st2" d="M-15 21h2v2h-2z"/><path class="st3" d="M-19 33.2c3.5-1.5 6-5.1 6-9.2v-1h2v1c0 5.2-3.3 9.7-8 11.3v-2.1zm4 8.8c.6 0 1 .5 1 1s-.4 1-1 1h-4v-2h4z"/><path class="st2" d="M-17 21h2v2h-2z"/><path class="st3" d="M-15 24c0 3-1.6 5.5-4 6.9v-2.5c1.2-1.1 2-2.7 2-4.5v-1h2V24z"/><path class="st2" d="M-21 42h2v2h-2zm2-6.7V42h-2v-6.2c.7-.1 1.4-.3 2-.5z"/><path class="st2" d="M-19 33.2v2.2c-.6.2-1.3.4-2 .5v-2c.7-.2 1.4-.5 2-.7zm0-2.3v2.2c-.6.3-1.3.5-2 .6v-2c.7-.1 1.4-.4 2-.8z"/><path class="st2" d="M-19 28.5V31c-.6.4-1.3.6-2 .8v-2.1c.8-.3 1.4-.7 2-1.2z"/><path class="st2" d="M-17 23c-1.1 0-2 .9-2 2v3.5c-.6.5-1.2.9-2 1.2V25c0-2.2 1.8-4 4-4v2zm0 24H5c1.1 0 2-.9 2-2V25c0-1.1-.9-2-2-2h-16v-2H5c2.2 0 4 1.8 4 4v20c0 2.2-1.8 4-4 4h-22c-2.2 0-4-1.8-4-4v-1h2v1c0 1.1.9 2 2 2z"/><path class="st2" d="M-23 30c.7 0 1.4-.1 2-.4v2.1c-.6.2-1.3.2-2 .2-4.4 0-8-3.6-8-8V8c0-4.4 3.6-8 8-8s8 3.6 8 8v13h-2v-3h-12v6c0 3.3 2.7 6 6 6zm6-22c0-3.3-2.7-6-6-6s-6 2.7-6 6v8h12V8z"/><path class="st2" d="M-23 34c.7 0 1.4-.1 2-.2v2c-.3.1-.7.1-1 .1v6h1v2h-10c-.5 0-1-.5-1-1s.5-1 1-1h7v-6c-6.2-.5-11-5.7-11-12v-3c0-.5.5-1 1-1s1 .5 1 1v3c0 5.6 4.5 10.1 10 10.1z"/></g></g></g><g id="Layer_4" class="st0"><path class="st1 st2" d="M11 29c0-.6-.4-1-1-1-.3 0-.5.1-.7.3l-10 10c-.2.2-.3.4-.3.7 0 .6.4 1 1 1 .3 0 .5-.1.7-.3l10-10c.2-.2.3-.4.3-.7zm-6.3.7l1-1c.2-.2.3-.4.3-.7 0-.6-.4-1-1-1-.3 0-.5.1-.7.3l-1 1c-.2.2-.3.4-.3.7 0 .6.4 1 1 1 .3 0 .5-.1.7-.3zM11 33c-.3 0-.5.1-.7.3l-3 3c-.2.2-.3.4-.3.7 0 .6.4 1 1 1 .3 0 .5-.1.7-.3l3-3c.2-.2.3-.4.3-.7 0-.6-.4-1-1-1zM39 1c0-.6-.4-1-1-1-.2 0-.3 0-.4.1l-42 18c-.4.2-.6.5-.6.9 0 .5.3.8.7.9l16.5 6.8L19 43.3c.1.4.5.7.9.7s.7-.2.9-.6l18-42c.2-.1.2-.2.2-.4zM-1.4 19l35-15-20.8 20.8L-1.4 19zM20 40.4l-5.8-14.2L35 5.4l-15 35z" id="Paper_Airplane_x40_2x.png"/></g><g id="Layer_5" class="st0"><path class="st1 st2" d="M31 32H17.9c-.4-1.7-2-3-3.9-3s-3.4 1.3-3.9 3H1c-.6 0-1 .4-1 1s.4 1 1 1h9.1c.4 1.7 2 3 3.9 3s3.4-1.3 3.9-3H31c.6 0 1-.4 1-1s-.4-1-1-1zm-17 3c-1.1 0-2-.9-2-2s.9-2 2-2 2 .9 2 2-.9 2-2 2zM34 0H-2c-2.2 0-4 1.8-4 4v36c0 2.2 1.8 4 4 4h36c2.2 0 4-1.8 4-4V4c0-2.2-1.8-4-4-4zm2 40c0 1.1-.9 2-2 2H-2c-1.1 0-2-.9-2-2V4c0-1.1.9-2 2-2h36c1.1 0 2 .9 2 2v36zm-5-19h-3.1c-.4-1.7-2-3-3.9-3s-3.4 1.3-3.9 3H1c-.6 0-1 .4-1 1s.4 1 1 1h19.1c.4 1.7 2 3 3.9 3s3.4-1.3 3.9-3H31c.6 0 1-.4 1-1s-.4-1-1-1zm-7 3c-1.1 0-2-.9-2-2s.9-2 2-2 2 .9 2 2-.9 2-2 2zm7-14H13.9c-.4-1.7-2-3-3.9-3s-3.4 1.3-3.9 3H1c-.6 0-1 .4-1 1s.4 1 1 1h5.1c.4 1.7 2 3 3.9 3s3.4-1.3 3.9-3H31c.6 0 1-.4 1-1s-.4-1-1-1zm-21 3c-1.1 0-2-.9-2-2s.9-2 2-2 2 .9 2 2-.9 2-2 2z" id="Toggles_3_x40_2x.png"/></g><g id="Layer_6" class="st0"><path class="st1 st2" d="M13 19c0-.6-.4-1-1-1s-1 .4-1 1 .4 1 1 1 1-.4 1-1zm3 1c.6 0 1-.4 1-1s-.4-1-1-1-1 .4-1 1 .4 1 1 1zm18-8V5.8c1.2-.4 2-1.5 2-2.8 0-1.7-1.3-3-3-3s-3 1.3-3 3c0 1.3.8 2.4 2 2.8V12h-4v-2c0-1.1-.9-2-2-2H6c-1.1 0-2 .9-2 2v2h-6c-2.2 0-4 1.8-4 4v24c0 2.2 1.8 4 4 4h36c2.2 0 4-1.8 4-4V16c0-2.2-1.8-4-4-4zM6 10h20v2H6v-2zm28 32H-2c-1.1 0-2-.9-2-2h40c0 1.1-.9 2-2 2zm2-24h-3c-.6 0-1 .4-1 1s.4 1 1 1h3v5h-4.1c-.5-2.8-2.9-5-5.9-5-3.3 0-6 2.7-6 6s2.7 6 6 6c3 0 5.4-2.2 5.9-5H36v11H-4V27H.1C.6 29.8 3 32 6 32c3.3 0 6-2.7 6-6s-2.7-6-6-6C3 20 .6 22.2.1 25H-4v-5h3c.6 0 1-.4 1-1s-.4-1-1-1h-3v-2c0-1.1.9-2 2-2h36c1.1 0 2 .9 2 2v2zm-6 8c0 2.2-1.8 4-4 4s-4-1.8-4-4 1.8-4 4-4 4 1.8 4 4zM2 26c0-2.2 1.8-4 4-4s4 1.8 4 4-1.8 4-4 4-4-1.8-4-4zm16 10h4v-2h-4v2zm2-18c-.6 0-1 .4-1 1s.4 1 1 1 1-.4 1-1-.4-1-1-1zM10 36h4v-2h-4v2zm8-12h-4v4h4v-4z" id="Boom_Box"/></g><g id="Layer_7" class="st0"><path class="st1 st3" d="M31.9 36.6c-.1-.1-.1-.3-.2-.3l-8.8-12.7c-.1-.3-.5-.6-.9-.6-.3 0-.5.1-.7.3l-4.2 4.2-5.2-7.8c-.1-.4-.5-.7-.9-.7-.3 0-.6.2-.8.5l-10 17c-.1.1-.2.3-.2.5 0 .6.4 1 1 1h30c.6 0 1-.4 1-1 0-.1 0-.3-.1-.4zM2.7 36L11 21.9l5 7.5c0 .1.1.2.2.3.2.2.4.3.7.3s.5-.1.7-.3l4.2-4.2L29.1 36H2.7zM5 16c2.8 0 5-2.2 5-5S7.8 6 5 6s-5 2.2-5 5 2.2 5 5 5zm0-8c1.7 0 3 1.3 3 3s-1.3 3-3 3-3-1.3-3-3 1.3-3 3-3zm29-8H-2c-2.2 0-4 1.8-4 4v36c0 2.2 1.8 4 4 4h36c2.2 0 4-1.8 4-4V4c0-2.2-1.8-4-4-4zm2 40c0 1.1-.9 2-2 2H-2c-1.1 0-2-.9-2-2V4c0-1.1.9-2 2-2h36c1.1 0 2 .9 2 2v36z" id="Photo_x40_2x.png"/></g><g id="Layer_8" class="st0"><path class="st1 st2" d="M19 22h4c.6 0 1-.4 1-1s-.4-1-1-1h-4c-.6 0-1 .4-1 1s.4 1 1 1zm0-4h10c.6 0 1-.4 1-1s-.4-1-1-1H19c-.6 0-1 .4-1 1s.4 1 1 1zm0-4h6c.6 0 1-.4 1-1s-.4-1-1-1h-6c-.6 0-1 .4-1 1s.4 1 1 1zM4 26h8c1.1 0 2-.9 2-2V14c0-1.1-.9-2-2-2H4c-1.1 0-2 .9-2 2v10c0 1.1.9 2 2 2zm0-12h8v10H4V14zm15 12h10c.6 0 1-.4 1-1s-.4-1-1-1H19c-.6 0-1 .4-1 1s.4 1 1 1zM36 2H18c0-1.1-.9-2-2-2s-2 .9-2 2H-4c-1.1 0-2 .9-2 2v2c0 1.1.9 2 2 2v24c0 1.1.9 2 2 2h17v2.6l-5.7 5.7c-.2.2-.3.4-.3.7 0 .6.4 1 1 1 .3 0 .5-.1.7-.3l5.3-5.3 5.3 5.3c.2.2.4.3.7.3.6 0 1-.4 1-1 0-.3-.1-.5-.3-.7L17 36.6V34h17c1.1 0 2-.9 2-2V8c1.1 0 2-.9 2-2V4c0-1.1-.9-2-2-2zm-2 30H-2V8h36v24zm2-26H-4V4h40v2z" id="Presentation_3"/></g><g id="Layer_9" class="st0"><path class="st1 st2" d="M16 41c.6 0 1-.4 1-1s-.4-1-1-1-1 .4-1 1 .4 1 1 1zm8-41H8C5.8 0 4 1.8 4 4v36c0 2.2 1.8 4 4 4h16c2.2 0 4-1.8 4-4V4c0-2.2-1.8-4-4-4zm2 40c0 1.1-.9 2-2 2H8c-1.1 0-2-.9-2-2v-2h20v2zm0-4H6V8h20v28zm0-30H6V4c0-1.1.9-2 2-2h16c1.1 0 2 .9 2 2v2zm-9-3h-2c-.6 0-1 .4-1 1s.4 1 1 1h2c.6 0 1-.4 1-1s-.4-1-1-1z" id="Mobile"/></g><g id="Layer_10"><path class="st2" d="M28 17.6v-5.9C28 5.3 22.6 0 16 0S4 5.3 4 11.7v5.9c-2.2 0-4 1.8-4 3.9v17.6C0 41.2 1.8 43 4 43h24c2.2 0 4-1.8 4-3.9V21.5c0-2.2-1.8-3.9-4-3.9zM6 11.7C6 6.3 10.5 2 16 2s10 4.4 10 9.8v5.9H6v-6zm24 27.4c0 1.1-.9 2-2 2H4c-1.1 0-2-.9-2-2V21.5c0-1.1.9-2 2-2h24c1.1 0 2 .9 2 2v17.6zM16 25.4c-2.2 0-4 1.8-4 3.9 0 1 .4 1.9 1 2.6v.3c0 1.6 1.3 2.9 3 2.9s3-1.3 3-2.9v-.3c.6-.7 1-1.6 1-2.6 0-2.1-1.8-3.9-4-3.9zm1 5.6v1.2c0 .5-.4 1-1 1s-1-.4-1-1V31c-.6-.3-1-1-1-1.7 0-1.1.9-2 2-2s2 .9 2 2c0 .7-.4 1.4-1 1.7z" id="Lock_x40_2x.png"/></g><g id="Layer_11" class="st0"><path class="st1 st2" d="M14-4C1.8-4-8 5.8-8 18s9.8 22 22 22 22-9.8 22-22S26.2-4 14-4zm0 2c5.2 0 9.9 2 13.4 5.2l-4.9 5C20.2 6.2 17.2 5 14 5S7.8 6.2 5.5 8.1l-4.9-5C4.1 0 8.8-2 14-2zm11 20c0 6.1-4.9 11-11 11S3 24.1 3 18 7.9 7 14 7s11 4.9 11 11zm-31 0c0-5.2 2-9.9 5.2-13.4l4.9 5C2.2 11.8 1 14.8 1 18s1.2 6.2 3.1 8.5l-4.9 4.9C-4 27.9-6 23.2-6 18zm20 20c-5.2 0-9.9-2-13.4-5.2l4.9-5c2.3 2 5.3 3.2 8.5 3.2s6.2-1.2 8.5-3.1l4.9 5C23.9 36 19.2 38 14 38zm14.8-6.6l-4.9-4.9c1.9-2.3 3.1-5.2 3.1-8.5 0-3.2-1.2-6.2-3.1-8.5l4.9-5C32 8.1 34 12.8 34 18c0 5.2-2 9.9-5.2 13.4z" id="Life_Preserver_x40_2x.png"/></g><g id="Layer_12" class="st0"><path class="st1 st2" d="M16 18c-1.7 0-3 1.3-3 3s1.3 3 3 3 3-1.3 3-3-1.3-3-3-3zm0-11C3.8 7-6 17-6 21s9.8 14 22 14 22-10 22-14S28.2 7 16 7zm0 26C5 33-4 24.4-4 21S5 9 16 9s20 8.6 20 12-9 12-20 12zm0-22c-5.5 0-10 4.5-10 10s4.5 10 10 10 10-4.5 10-10-4.5-10-10-10zm0 18c-4.4 0-8-3.6-8-8s3.6-8 8-8 8 3.6 8 8-3.6 8-8 8z" id="Eye_x40_2x.png"/></g><g id="Layer_13" class="st0"><path class="st1 st2" d="M-1 11h34c.6 0 1-.4 1-1s-.4-1-1-1H-1c-.6 0-1 .4-1 1s.4 1 1 1zm6 6H3c-.6 0-1 .4-1 1s.4 1 1 1h2c.6 0 1-.4 1-1s-.4-1-1-1zM3 7h26c.6 0 1-.4 1-1s-.4-1-1-1H3c-.6 0-1 .4-1 1s.4 1 1 1zm11.2 15.5c0 .2 0 .4.1.6.1.2.2.3.3.4.1.1.3.2.5.3.2.1.3.1.4.2v-2.7c-.5 0-.7.1-1 .3-.2 0-.3.4-.3.9zM29 31h-2c-.6 0-1 .4-1 1s.4 1 1 1h2c.6 0 1-.4 1-1s-.4-1-1-1zm7-18H-4c-1.1 0-2 .9-2 2v20c0 1.1.9 2 2 2h40c1.1 0 2-.9 2-2V15c0-1.1-.9-2-2-2zm-39 2c.6 0 1 .4 1 1s-.4 1-1 1-1-.4-1-1 .4-1 1-1zm0 20c-.6 0-1-.4-1-1s.4-1 1-1 1 .4 1 1-.4 1-1 1zm38 0c-.6 0-1-.4-1-1s.4-1 1-1 1 .4 1 1-.4 1-1 1zm1-3.8c-.3-.1-.6-.2-1-.2-1.7 0-3 1.3-3 3 0 .4.1.7.2 1H-.2c.1-.3.2-.6.2-1 0-1.7-1.3-3-3-3-.4 0-.7.1-1 .2V18.8c.3.1.6.2 1 .2 1.7 0 3-1.3 3-3 0-.4-.1-.7-.2-1h32.4c-.1.3-.2.6-.2 1 0 1.7 1.3 3 3 3 .4 0 .7-.1 1-.2v12.4zM35 17c-.6 0-1-.4-1-1s.4-1 1-1 1 .4 1 1-.4 1-1 1zm-19 0c-4.4 0-8 3.6-8 8s3.6 8 8 8 8-3.6 8-8-3.6-8-8-8zm3.2 11.3c-.2.4-.4.7-.7.9-.3.2-.6.4-1 .6-.4.1-.7.2-1.1.2v1h-.8v-.9c-.5 0-.8-.1-1.2-.2-.4-.1-.7-.4-1-.6-.3-.3-.5-.6-.7-1-.2-.4-.2-.8-.2-1.3H14c0 .6.1 1.1.4 1.4.3.3.6.5 1.2.5v-3.3c-.4-.1-.6-.2-1-.4-.4-.1-.7-.3-1-.5-.3-.2-.5-.5-.7-.8-.2-.3-.3-.8-.3-1.3 0-.4.1-.8.2-1.1.2-.3.4-.6.7-.8.3-.2.6-.4 1-.5.4-.1.6-.2 1-.2v-1h.8v.9c.4 0 .7.1 1 .2.4.1.7.3.9.5.3.2.5.5.6.8.2.3.2.7.2 1.2h-1.5c0-.5-.1-.8-.4-1.1-.2-.2-.5-.4-.9-.4V24c.4.1.7.2 1.1.4.4.1.7.3 1 .6.3.2.5.5.7.8.2.3.3.7.3 1.2.2.5.1 1-.1 1.3zm-1.8-2.1c-.2-.1-.3-.2-.5-.3-.2-.1-.3-.1-.5-.2v3.2c.5 0 .8-.2 1.1-.4.3-.2.5-.6.5-1.2 0-.3 0-.5-.1-.6-.2-.3-.3-.4-.5-.5z" id="Paper_Dollars_1"/></g><g id="Layer_14" class="st0"><path class="st1 st2" d="M.8 23.6L-7 43l19.4-7.8c-.3 0-.7.1-1 .1C5.5 35.3.1 29.6.8 23.6zm-4.2 15.8l3.6-9.1c.5.9 1.1 1.8 1.8 2.5C3.1 34 4.3 35 5.6 35.7l-9 3.7zm40-40.1c-.2-.2-.7-.3-1.6-.3-4.2 0-15.3 3.1-21.2 9-1.4 1.4-6 5.6-7.1 7.1-3.3.9-8.4 2.8-11.2 5.6 0 0 3.4 0 7.6 2.7-.6 2.5.2 5.1 2.3 7.2 1.7 1.7 3.6 2.5 5.6 2.5.6 0 1.1-.1 1.7-.2 2.7 4.2 2.7 7.6 2.7 7.6 2.8-2.8 4.7-7.9 5.7-11.3 1.4-1.1 5.7-5.7 7.1-7.1 6.9-7 9.9-21.3 8.4-22.8zM19 28.7c-.7 2.7-1.7 5.1-2.8 7.1-.4-1.2-1.1-2.5-2-3.9-.4-.6-1-.9-1.7-.9-.2 0-.3 0-.5.1-.4.1-.8.1-1.2.1-1.5 0-2.9-.7-4.1-1.9-1.6-1.6-2.2-3.5-1.8-5.3.2-.8-.1-1.7-.9-2.2-1.4-.9-2.7-1.5-3.9-2 2-1.1 4.4-2 7.1-2.8.1 0 .1 0 .1-.1l11.6 11.6c.2.1.1.1.1.2zm7.6-8c-.4.4-1 1-1.7 1.8-1.3 1.3-3.3 3.4-4.4 4.5L9 15.6c1.1-1.2 3.2-3.2 4.5-4.4.8-.7 1.4-1.3 1.8-1.7C20.7 4 31.1 1 35 1c0 3.2-2.7 14.1-8.4 19.7zM14 15c-.6 0-1 .4-1 1s.4 1 1 1 1-.4 1-1-.4-1-1-1zm3 5c.6 0 1-.4 1-1s-.4-1-1-1-1 .4-1 1 .4 1 1 1zm3 3c.6 0 1-.4 1-1s-.4-1-1-1-1 .4-1 1 .4 1 1 1zm6-10c1.7 0 3-1.3 3-3s-1.3-3-3-3-3 1.3-3 3 1.3 3 3 3zm0-4c.6 0 1 .4 1 1s-.4 1-1 1-1-.4-1-1 .4-1 1-1z" id="Rocket"/></g><g id="Layer_15" class="st0"><path class="st1 st2" d="M37 17c.6 0 1-.4 1-1v-4c0-.4-.2-.7-.5-.9l-21-12c-.2 0-.3-.1-.5-.1s-.3.1-.5.1l-21 12c-.3.2-.5.5-.5.9v4c0 .6.4 1 1 1h3v18h-1c-.4 0-.8.3-.9.7l-2 6c-.1.1-.1.2-.1.3 0 .6.4 1 1 1h42c.6 0 1-.4 1-1 0-.1 0-.2-.1-.3l-2-6c-.1-.4-.5-.7-.9-.7h-1V17h3zM16 1.2L33.2 11H-1.2L16 1.2zM34.3 37l1.3 4H-3.6l1.3-4h36.6zM0 35V17h4v18H0zm6 0V17h4v18H6zm6 0V17h8v18h-8zm10 0V17h4v18h-4zm6 0V17h4v18h-4zM-4 15v-2h40v2H-4z" id="Old_Building_x40_2x.png"/></g></svg>